<svg width="60" height="81" viewBox="0 0 60 81" fill="none" xmlns="http://www.w3.org/2000/svg">
<path d="M30 0C13.3333 0 0 13.3333 0 30C0 50.6667 11.3333 69 28.3333 79.6667C29.3333 80.3333 30.6667 80.3333 32 79.6667C48.6667 68.6667 60 50.6667 60 30C60 13.3333 46.6667 0 30 0ZM30 43.3333C22.6667 43.3333 16.6667 37.3333 16.6667 30C16.6667 22.6667 22.6667 16.6667 30 16.6667C37.3333 16.6667 43.3333 22.6667 43.3333 30C43.3333 37.3333 37.3333 43.3333 30 43.3333Z" fill="#FDEEDA"/>
<path d="M30 0C13.3333 0 0 13.3333 0 30C0 50.6667 11.3333 69 28.3333 79.6667C29.3333 80.3333 30.6667 80.3333 32 79.6667C48.6667 68.6667 60 50.6667 60 30C60 13.3333 46.6667 0 30 0ZM30 43.3333C22.6667 43.3333 16.6667 37.3333 16.6667 30C16.6667 22.6667 22.6667 16.6667 30 16.6667C37.3333 16.6667 43.3333 22.6667 43.3333 30C43.3333 37.3333 37.3333 43.3333 30 43.3333Z" fill="black" fill-opacity="0.2"/>
<path d="M30 0C13.3333 0 0 13.3333 0 30C0 50.6667 11.3333 69 28.3333 79.6667C29.3333 80.3333 30.6667 80.3333 32 79.6667C48.6667 68.6667 60 50.6667 60 30C60 13.3333 46.6667 0 30 0ZM30 43.3333C22.6667 43.3333 16.6667 37.3333 16.6667 30C16.6667 22.6667 22.6667 16.6667 30 16.6667C37.3333 16.6667 43.3333 22.6667 43.3333 30C43.3333 37.3333 37.3333 43.3333 30 43.3333Z" fill="black" fill-opacity="0.2"/>
</svg>
