<svg width="22" height="22" viewBox="0 0 22 22" fill="none" xmlns="http://www.w3.org/2000/svg">
<path d="M11.47 11.88L21.34 2.00001C21.5038 1.8087 21.5894 1.56263 21.5797 1.31095C21.57 1.05928 21.4657 0.820537 21.2876 0.642442C21.1095 0.464348 20.8707 0.360015 20.619 0.350294C20.3674 0.340573 20.1213 0.426179 19.93 0.590005L10.87 9.65001L2.07 0.850005C1.88263 0.663754 1.62918 0.559213 1.365 0.559213C1.10081 0.559213 0.847358 0.663754 0.659995 0.850005C0.566267 0.942968 0.491873 1.05357 0.441104 1.17543C0.390335 1.29729 0.364197 1.42799 0.364197 1.56001C0.364197 1.69202 0.390335 1.82272 0.441104 1.94458C0.491873 2.06644 0.566267 2.17704 0.659995 2.27001L10.27 11.88C10.4293 12.0388 10.6451 12.1279 10.87 12.1279C11.0949 12.1279 11.3107 12.0388 11.47 11.88Z" fill="#FAF9F7"/>
<path d="M11.47 21.46L21.34 11.58C21.5038 11.3887 21.5894 11.1426 21.5797 10.891C21.57 10.6393 21.4657 10.4006 21.2876 10.2225C21.1095 10.0444 20.8707 9.94003 20.619 9.93031C20.3674 9.92059 20.1213 10.0062 19.93 10.17L10.87 19.23L2.06999 10.43C1.88263 10.2438 1.62918 10.1392 1.36499 10.1392C1.10081 10.1392 0.847357 10.2438 0.659994 10.43C0.473743 10.6174 0.369202 10.8708 0.369202 11.135C0.369202 11.3992 0.473743 11.6527 0.659994 11.84L10.27 21.46C10.4293 21.6188 10.6451 21.7079 10.87 21.7079C11.0949 21.7079 11.3107 21.6188 11.47 21.46Z" fill="#FAF9F7"/>
</svg>
