<svg width="104" height="104" viewBox="0 0 104 104" fill="none" xmlns="http://www.w3.org/2000/svg">
<path d="M49.6932 7.22122C49.8509 7.33554 49.9174 7.53918 49.8573 7.72444L48.6979 11.2923C48.5626 11.7075 49.0381 12.0528 49.3911 11.7959L52.426 9.59137C52.5837 9.47663 52.7974 9.47663 52.9553 9.59137L55.9902 11.7961C56.3432 12.0528 56.8186 11.7077 56.6838 11.2925L55.5244 7.72465C55.4639 7.53939 55.5301 7.33575 55.688 7.22143L58.7229 4.98697C59.0759 4.73034 58.895 4.14271 58.4584 4.14271H54.7068C54.5119 4.14271 54.3386 4.04634 54.2786 3.86065L53.1192 0.307563C52.9843 -0.107192 52.3971 -0.100141 52.2623 0.314615L51.1029 3.85702C51.0424 4.04228 50.8695 4.14271 50.6742 4.14271H46.9226C46.4865 4.14271 46.3049 4.73034 46.6581 4.98697L49.6932 7.22122Z" fill="#FAF9F7"/>
<path d="M86.9847 19.8231C86.8469 19.685 86.8135 19.4737 86.902 19.3002L88.6052 15.9572C88.8031 15.5687 88.3877 15.1533 87.9988 15.3512L84.6562 17.0544C84.4825 17.1433 84.2714 17.1095 84.1333 16.9717L81.4807 14.3191C81.1723 14.0103 80.6493 14.277 80.7174 14.708L81.3042 18.4132C81.3347 18.606 81.2373 18.7968 81.0638 18.8852L77.7212 20.5885C77.3323 20.7864 77.4239 21.3665 77.8552 21.4345L81.5604 22.0216C81.7536 22.0522 81.9046 22.2033 81.9352 22.396L82.5215 26.1013C82.5899 26.5325 83.1701 26.6241 83.3679 26.2352L85.0712 22.8926C85.1596 22.7187 85.3505 22.6217 85.5432 22.6522L89.2484 23.239C89.6796 23.3074 89.9463 22.7841 89.6373 22.4757L86.9847 19.8231Z" fill="#FAF9F7"/>
<path d="M103.67 51.2487L100.175 50.0893C99.989 50.0288 99.9364 49.856 99.9364 49.6607V45.9091C99.9364 45.4729 99.3046 45.2913 99.0484 45.6445L96.8077 48.6794C96.6925 48.8371 96.4705 48.9036 96.2853 48.8435L92.7084 47.6837C92.2937 47.5489 91.9439 48.0239 92.2001 48.3769L94.4034 51.4122C94.5177 51.5699 94.517 51.7836 94.4023 51.9415L92.1967 54.9768C91.9405 55.3298 92.2847 55.8049 92.6999 55.67L96.2675 54.5106C96.4532 54.4505 96.656 54.5164 96.7712 54.6743L99.0488 57.7092C99.305 58.0622 99.9364 57.8812 99.9364 57.4446V53.693C99.9364 53.4977 99.989 53.3249 100.175 53.2648L103.707 52.105C104.121 51.9708 104.085 51.3836 103.67 51.2487Z" fill="#FAF9F7"/>
<path d="M27.1146 20.4419C27.5458 20.3735 27.6375 19.7938 27.249 19.5955L23.9064 17.8922C23.732 17.8038 23.6348 17.613 23.666 17.4202L24.2523 13.715C24.3207 13.2838 23.7974 13.0175 23.489 13.3261L20.8368 15.9787C20.6988 16.1168 20.487 16.1503 20.3135 16.0614L16.9705 14.3582C16.582 14.1603 16.1666 14.5757 16.3649 14.9642L18.0677 18.3072C18.1566 18.4809 18.1233 18.6921 17.985 18.8301L15.3324 21.4827C15.0241 21.7911 15.2903 22.3146 15.7213 22.246L19.4265 21.6592C19.6197 21.6287 19.8097 21.7257 19.8986 21.8996L21.6018 25.2422C21.8001 25.6311 22.3798 25.5395 22.4478 25.1083L23.035 21.403C23.0655 21.2103 23.2166 21.0592 23.4093 21.0287L27.1146 20.4419Z" fill="#FAF9F7"/>
<path d="M11.7816 46.973C12.0378 46.6204 11.6927 46.145 11.278 46.2802L7.71013 47.4392C7.52444 47.4997 7.32123 47.4335 7.20691 47.2756L5.01155 44.2406C4.75535 43.8876 4.20725 44.0686 4.20725 44.5052V48.2568C4.20725 48.4521 4.07178 48.625 3.88566 48.685L0.3127 49.8449C-0.102055 49.9793 -0.105474 50.5665 0.309922 50.7017L3.88652 51.8605C4.07221 51.921 4.20704 52.0939 4.20704 52.2892V56.0408C4.20704 56.4769 4.75513 56.6585 5.01134 56.3053L7.21183 53.2704C7.32657 53.1127 7.52658 53.0462 7.71227 53.1067L11.2788 54.2661C11.694 54.401 12.038 53.926 11.7818 53.573L9.57664 50.538C9.46189 50.3799 9.4621 50.1662 9.57685 50.0083L11.7816 46.973Z" fill="#FAF9F7"/>
<path d="M76.4207 52.1077C76.0135 43.2772 70.9159 35.6714 63.5578 31.7305C62.9776 31.4142 62.3795 31.124 61.769 30.8599C58.7897 29.5648 55.5018 28.8462 52.0457 28.8462C39.0645 28.8462 28.4655 38.9856 27.7055 51.7797L27.7121 51.7785V51.8218C27.7121 52.2939 27.6897 54.407 27.6897 54.407L27.3262 55.2125H29.756C30.669 52.221 33.4725 50.1765 36.7799 50.1765C40.8281 50.1765 44.1217 53.5582 44.1217 57.6064C44.1217 61.6542 40.8281 64.8827 36.7799 64.8827C32.9048 64.8827 29.7222 61.8367 29.4579 57.9904H26.5586C26.4969 57.9904 26.4383 58.0893 26.3787 58.081L23.3288 66.5994C22.9006 67.7873 23.7804 69.1018 25.0426 69.1018H27.6689L27.6493 82.668C27.6493 85.3465 29.8215 87.4784 32.5 87.4784H41.174V100.234C41.174 102.221 43.17 103.718 45.1575 103.718H67.473C69.4605 103.718 71.0896 102.221 71.0896 100.234V74.6097C71.0896 71.1145 72.0118 67.7018 73.645 64.6104C75.351 61.3815 76.3498 57.7241 76.443 53.8401C76.4472 53.6452 76.4492 53.446 76.4492 53.2467C76.4489 52.8657 76.4378 52.4845 76.4207 52.1077ZM52.4384 50.2977H50.3623V52.3902C50.3623 53.1206 49.7033 53.7125 48.9734 53.7125C48.2434 53.7125 47.5844 53.1206 47.5844 52.3902V50.2977H45.7036C44.9737 50.2977 44.3814 49.6387 44.3814 48.9087C44.3814 48.1788 44.9735 47.5198 45.7036 47.5198H47.5844V45.6554C47.5844 44.9255 48.2434 44.3332 48.9734 44.3332C49.7033 44.3332 50.3623 44.9253 50.3623 45.6554V47.5198H52.4384C53.1684 47.5198 53.7607 48.1788 53.7607 48.9087C53.7607 49.6387 53.1684 50.2977 52.4384 50.2977Z" fill="#FAF9F7"/>
<path d="M40.107 61.011C40.9485 60.1601 41.4775 58.9919 41.4775 57.694C41.4775 55.1023 39.3717 52.9969 36.78 52.9969C35.4962 52.9969 34.328 53.5114 33.4771 54.3529C32.617 55.2085 32.0833 56.3912 32.0833 57.6942C32.0833 60.2855 34.1889 62.3914 36.78 62.3914C38.0783 62.3912 39.2559 61.8623 40.107 61.011Z" fill="#FAF9F7"/>
</svg>
