<svg width="104" height="100" viewBox="0 0 104 100" fill="none" xmlns="http://www.w3.org/2000/svg">
<path d="M10.7992 5.40285C35.1342 5.38798 59.4692 5.37311 83.8043 5.35824C86.2606 5.35674 92.6806 4.5373 94.4867 5.73349C97.9091 8.00018 98.4297 13.5222 98.9409 17.0651C99.717 22.444 99.1105 28.3832 99.1923 33.8403C99.3341 43.3015 103.975 69.825 91.6672 73.044C86.9853 74.2685 80.3242 73.1816 75.5633 73.2094C69.7277 73.2434 63.8922 73.2775 58.0567 73.3115C46.3857 73.3796 34.7146 73.4476 23.0436 73.5157C13.4484 73.5716 6.00634 73.9361 5.43834 61.8361C5.17135 56.1483 5.34281 50.3937 5.29529 44.7013C5.23657 37.6685 1.07375 7.43394 10.862 5.3836C13.7422 4.78027 12.5233 0.368766 9.64564 0.971556C-3.37344 3.69867 0.528884 21.8335 0.608541 31.3743C0.682715 40.2585 0.706753 49.1448 0.831074 58.0284C0.90034 62.9778 0.389039 68.8152 3.40045 73.1041C5.71371 76.3987 8.87459 77.5492 12.7447 78.0922C22.2415 79.4246 32.8992 78.0337 42.4953 77.9777C51.5728 77.9248 60.6503 77.8719 69.7277 77.8189C77.5207 77.7735 86.5376 78.9297 94.1656 77.3048C105.064 74.9832 103.741 64.2921 103.921 55.093C104.109 45.5288 103.799 35.9481 103.656 26.3847C103.57 20.6363 105.01 12.5478 102.568 7.11828C97.8854 -3.29158 78.8553 0.785777 69.9925 0.791193C50.2614 0.803252 30.5303 0.81531 10.7992 0.827368C7.85513 0.829167 7.8501 5.40465 10.7992 5.40285Z" fill="#FAF9F7"/>
<path d="M45.3701 18.2589C49.9387 18.2843 54.5062 18.2705 59.0745 18.2177C58.3119 17.4552 57.5493 16.6926 56.7868 15.93C57.0305 18.3375 56.8464 20.8389 58.189 22.9454C59.3879 24.8264 61.5363 24.9924 62.8171 26.44C64.862 28.7512 63.6488 34.3582 62.9358 36.973C61.2501 43.155 55.595 48.6507 48.9443 45.2186C44.2666 42.8047 41.4792 38.5091 40.4029 33.4784C40.0371 31.7685 38.9737 28.4854 39.6253 26.6912C40.7146 23.6919 36.294 27.2474 40.9556 25.6447C45.3407 24.1371 47.8383 22.2335 47.7912 17.1592C47.7639 14.2165 43.1883 14.2093 43.2157 17.1592C43.2519 21.058 36.7828 20.1708 35.2731 22.8699C33.8126 25.4807 35.2444 30.7827 35.7761 33.6642C37.197 41.3649 43.6312 50.6624 52.1508 51.8201C59.5045 52.8194 66.1862 43.4298 67.5462 37.2651C68.237 34.1337 69.4045 28.5081 68.2331 25.5048C66.7582 21.7234 61.8467 20.7145 61.3622 15.93C61.2388 14.7103 60.4143 13.6268 59.0745 13.6423C54.5062 13.6951 49.9387 13.7088 45.3701 13.6834C42.4254 13.667 42.422 18.2425 45.3701 18.2589Z" fill="#FAF9F7"/>
<path d="M2.49628 63.174C35.146 63.174 67.7958 63.174 100.446 63.174C103.39 63.174 103.395 58.5985 100.446 58.5985C67.7958 58.5985 35.146 58.5985 2.49628 58.5985C-0.44782 58.5985 -0.452697 63.174 2.49628 63.174Z" fill="#FAF9F7"/>
<path d="M37.6049 97.1763C45.4629 90.4562 62.2503 90.564 69.4723 98.3139C71.4841 100.473 74.7143 97.2319 72.7077 95.0786C63.6388 85.3467 44.1648 85.5641 34.3696 93.9409C32.1283 95.8577 35.3775 99.0812 37.6049 97.1763Z" fill="#FAF9F7"/>
<path d="M61.554 77.3244C61.554 81.6175 61.554 85.9105 61.554 90.2035C61.554 93.1477 66.1294 93.1525 66.1294 90.2035C66.1294 85.9105 66.1294 81.6175 66.1294 77.3244C66.1294 74.3803 61.554 74.3754 61.554 77.3244Z" fill="#FAF9F7"/>
<path d="M40.0514 76.6467C39.9726 81.2239 39.9966 85.7991 40.1234 90.3751C40.2048 93.3135 44.7806 93.3254 44.6989 90.3751C44.5721 85.7991 44.5481 81.2238 44.6268 76.6467C44.6775 73.7013 40.102 73.7008 40.0514 76.6467Z" fill="#FAF9F7"/>
</svg>
