<svg width="105" height="105" viewBox="0 0 105 105" fill="none" xmlns="http://www.w3.org/2000/svg">
<path d="M20.384 78.9034H5.94868C2.9267 78.9034 0.476807 81.3545 0.476807 84.3781V98.8202C0.476807 101.844 2.9267 104.295 5.94868 104.295H20.384C23.4061 104.295 25.856 101.844 25.856 98.8202V84.3781C25.856 81.3545 23.4061 78.9034 20.384 78.9034ZM9.80293 93.4735H8.66596C7.63135 93.4735 6.79249 92.6344 6.79249 91.5991C6.79249 90.5639 7.63135 89.7248 8.66596 89.7248H9.80293C10.8375 89.7248 11.6764 90.5639 11.6764 91.5991C11.6764 92.6342 10.8377 93.4735 9.80293 93.4735ZM17.6667 93.4735H16.5297C15.4951 93.4735 14.6563 92.6344 14.6563 91.5991C14.6563 90.5639 15.4951 89.7248 16.5297 89.7248H17.6667C18.7013 89.7248 19.5402 90.5639 19.5402 91.5991C19.5402 92.6342 18.7013 93.4735 17.6667 93.4735Z" fill="#FAF9F7"/>
<path d="M59.7377 78.9034H45.3023C42.2805 78.9034 39.8306 81.3545 39.8306 84.3781V98.8202C39.8306 101.844 42.2805 104.295 45.3023 104.295H59.7377C62.7599 104.295 65.2098 101.844 65.2098 98.8202V84.3781C65.2098 81.3545 62.7599 78.9034 59.7377 78.9034ZM49.1568 93.4735H48.0199C46.9854 93.4735 46.1464 92.6344 46.1464 91.5991C46.1464 90.5639 46.9854 89.7248 48.0199 89.7248H49.1568C50.1916 89.7248 51.0303 90.5639 51.0303 91.5991C51.0303 92.6342 50.1916 93.4735 49.1568 93.4735ZM57.0206 93.4735H55.8836C54.8489 93.4735 54.0102 92.6344 54.0102 91.5991C54.0102 90.5639 54.8489 89.7248 55.8836 89.7248H57.0206C58.0551 89.7248 58.8941 90.5639 58.8941 91.5991C58.8941 92.6342 58.0552 93.4735 57.0206 93.4735Z" fill="#FAF9F7"/>
<path d="M99.092 78.9034H84.6567C81.6347 78.9034 79.1848 81.3545 79.1848 84.3781V98.8202C79.1848 101.844 81.6347 104.295 84.6567 104.295H99.092C102.114 104.295 104.564 101.844 104.564 98.8202V84.3781C104.564 81.3545 102.114 78.9034 99.092 78.9034ZM88.5111 93.4735H87.3741C86.3395 93.4735 85.5006 92.6344 85.5006 91.5991C85.5006 90.5639 86.3395 89.7248 87.3741 89.7248H88.5111C89.5457 89.7248 90.3845 90.5639 90.3845 91.5991C90.3845 92.6342 89.5457 93.4735 88.5111 93.4735ZM96.3749 93.4735H95.2379C94.2033 93.4735 93.3644 92.6344 93.3644 91.5991C93.3644 90.5639 94.2033 89.7248 95.2379 89.7248H96.3749C97.4095 89.7248 98.2483 90.5639 98.2483 91.5991C98.2483 92.6342 97.4095 93.4735 96.3749 93.4735Z" fill="#FAF9F7"/>
<path d="M52.5202 11.0392C48.3461 11.0392 44.9514 14.4356 44.9514 18.6116C44.9514 22.7877 48.3461 26.184 52.5202 26.184C56.6943 26.184 60.089 22.7877 60.089 18.6116C60.089 14.4356 56.6943 11.0392 52.5202 11.0392ZM52.5202 21.1608C51.1129 21.1608 49.9723 20.0196 49.9723 18.6116C49.9723 17.2036 51.1129 16.0625 52.5202 16.0625C53.9276 16.0625 55.0681 17.2036 55.0681 18.6116C55.0681 20.0196 53.9276 21.1608 52.5202 21.1608Z" fill="#FAF9F7"/>
<path d="M87.379 59.1605C88.8238 59.1605 90.0019 60.3376 90.0019 61.7846V75.1555H93.7488V61.7846C93.7488 58.2698 90.8906 55.4117 87.379 55.4117H81.0842C79.6378 55.4117 78.4613 54.2346 78.4613 52.7876V28.6871C81.2958 26.3048 83.4981 23.5271 84.882 20.486H95.994C96.511 20.486 96.9801 20.2761 97.319 19.9372C97.6577 19.5983 97.8674 19.129 97.8674 18.6116C97.8674 17.577 97.0281 16.7373 95.994 16.7373H84.882C80.636 7.40597 68.6893 0.553311 54.394 0V2.18325C54.394 3.2179 53.5547 4.05761 52.5205 4.05761C51.4863 4.05761 50.647 3.2179 50.647 2.18325V0C36.3517 0.553311 24.405 7.40597 20.159 16.7373H9.04705C8.52997 16.7373 8.06086 16.9472 7.72199 17.2861C7.38326 17.625 7.17358 18.0943 7.17358 18.6116C7.17358 19.6463 8.0129 20.486 9.04705 20.486H20.159C21.5428 23.5273 23.7452 26.3048 26.5797 28.6871V52.7876C26.5797 54.2346 25.4032 55.4117 23.9569 55.4117H17.662C14.1504 55.4117 11.2922 58.2698 11.2922 61.7846V75.1555H15.0392V61.7846C15.0392 60.3376 16.2172 59.1605 17.662 59.1605H23.9569C27.4685 59.1605 30.3267 56.3009 30.3267 52.7876V31.3802C33.9826 33.6287 38.3157 35.3312 43.0782 36.3111V75.4284C43.7901 75.25 44.535 75.1555 45.3024 75.1555H46.8252V36.9201C48.0772 37.0706 49.3524 37.1732 50.647 37.2233V35.04C50.647 34.0054 51.4863 33.1657 52.5205 33.1657C53.5547 33.1657 54.394 34.0054 54.394 35.04V37.2233C55.6886 37.1732 56.9638 37.0706 58.2158 36.9201V75.1555H59.7386C60.506 75.1555 61.2509 75.25 61.9628 75.4284V36.3111C66.7253 35.3311 71.0585 33.6285 74.7144 31.3802V52.7876C74.7144 56.3009 77.5725 59.1605 81.0842 59.1605H87.379ZM33.4771 21.1608C32.807 21.1608 32.1986 20.9029 31.7445 20.48C31.2424 20.0152 30.9292 19.3494 30.9292 18.6116C30.9292 17.8739 31.2424 17.2081 31.7445 16.7433C32.1986 16.3204 32.8071 16.0625 33.4771 16.0625C34.8829 16.0625 36.025 17.2036 36.025 18.6116C36.025 20.0196 34.8829 21.1608 33.4771 21.1608ZM52.5205 29.9328C46.2811 29.9328 41.2048 24.854 41.2048 18.6116C41.2048 12.3693 46.2811 7.29051 52.5205 7.29051C58.7599 7.29051 63.8363 12.3693 63.8363 18.6116C63.8363 24.854 58.7599 29.9328 52.5205 29.9328ZM71.5639 21.1608C70.1581 21.1608 69.016 20.0196 69.016 18.6116C69.016 17.2036 70.1581 16.0625 71.5639 16.0625C72.234 16.0625 72.8424 16.3204 73.2967 16.7433C73.7988 17.2081 74.1118 17.8739 74.1118 18.6116C74.1118 19.3494 73.7986 20.0152 73.2967 20.48C72.8424 20.9029 72.2339 21.1608 71.5639 21.1608Z" fill="#FAF9F7"/>
</svg>
