<svg width="104" height="102" viewBox="0 0 104 102" fill="none" xmlns="http://www.w3.org/2000/svg">
<path d="M102.534 55.9897H91.7354V38.6757C91.7354 38.2861 91.5807 37.9125 91.3052 37.6371C91.0297 37.3616 90.6561 37.2068 90.2665 37.2068H53.4134V20.1304H73.5644C73.9539 20.1304 74.3276 19.9756 74.603 19.7002C74.8785 19.4247 75.0332 19.0511 75.0332 18.6615V1.46628C75.0332 1.27351 74.9952 1.08263 74.9214 0.904564C74.8475 0.726499 74.7393 0.564743 74.6029 0.428552C74.4664 0.292362 74.3045 0.18441 74.1263 0.110875C73.9481 0.0373395 73.7571 -0.000337115 73.5644 2.2726e-06H30.3298C30.137 -0.000337115 29.9461 0.0373395 29.7679 0.110875C29.5897 0.18441 29.4277 0.292362 29.2913 0.428552C29.1549 0.564743 29.0466 0.726499 28.9728 0.904564C28.8989 1.08263 28.8609 1.27351 28.8609 1.46628V18.6615C28.8609 19.0511 29.0157 19.4247 29.2911 19.7002C29.5666 19.9756 29.9402 20.1304 30.3298 20.1304H50.4653V37.2068H13.6276C13.2381 37.2068 12.8644 37.3616 12.589 37.6371C12.3135 37.9125 12.1588 38.2861 12.1588 38.6757V56.0077H1.46886C1.27609 56.0074 1.08514 56.0451 0.906947 56.1186C0.728752 56.1922 0.566806 56.3001 0.430376 56.4363C0.293945 56.5725 0.185709 56.7342 0.11186 56.9123C0.0380116 57.0904 -2.98755e-07 57.2813 0 57.474V100.311C-2.98755e-07 100.504 0.0380116 100.695 0.11186 100.873C0.185709 101.051 0.293945 101.213 0.430376 101.349C0.566806 101.485 0.728752 101.593 0.906947 101.666C1.08514 101.74 1.27609 101.778 1.46886 101.777H25.789C25.9817 101.778 26.1727 101.74 26.3509 101.666C26.5291 101.593 26.691 101.485 26.8275 101.349C26.9639 101.213 27.0721 101.051 27.146 100.873C27.2198 100.695 27.2578 100.504 27.2578 100.311V57.474C27.2578 57.2813 27.2198 57.0904 27.146 56.9123C27.0721 56.7342 26.9639 56.5725 26.8275 56.4363C26.691 56.3001 26.5291 56.1922 26.3509 56.1186C26.1727 56.0451 25.9817 56.0074 25.789 56.0077H15.0862V40.142H50.4782V56.0077H39.7857C39.593 56.0074 39.402 56.0451 39.2238 56.1186C39.0456 56.1922 38.8837 56.3001 38.7473 56.4363C38.6108 56.5725 38.5026 56.7342 38.4287 56.9123C38.3549 57.0904 38.3169 57.2813 38.3169 57.474V100.311C38.3169 100.504 38.3549 100.695 38.4287 100.873C38.5026 101.051 38.6108 101.213 38.7473 101.349C38.8837 101.485 39.0456 101.593 39.2238 101.666C39.402 101.74 39.593 101.778 39.7857 101.777H64.1084C64.301 101.777 64.4917 101.739 64.6695 101.666C64.8474 101.592 65.0091 101.484 65.1452 101.348C65.2814 101.212 65.3894 101.05 65.4631 100.872C65.5368 100.694 65.5747 100.504 65.5747 100.311V57.474C65.5747 57.2815 65.5368 57.0908 65.4631 56.9129C65.3894 56.735 65.2814 56.5734 65.1452 56.4372C65.0091 56.3011 64.8474 56.1931 64.6695 56.1194C64.4917 56.0457 64.301 56.0077 64.1084 56.0077H53.4134V40.142H88.7977V55.9897H78.2136C77.8241 55.9897 77.4504 56.1444 77.175 56.4199C76.8995 56.6954 76.7448 57.069 76.7448 57.4585V100.293C76.7448 100.683 76.8995 101.056 77.175 101.332C77.4504 101.607 77.8241 101.762 78.2136 101.762H102.531C102.921 101.762 103.294 101.607 103.57 101.332C103.845 101.056 104 100.683 104 100.293V57.4585C104 57.0694 103.846 56.6962 103.571 56.4208C103.296 56.1454 102.923 55.9904 102.534 55.9897ZM72.0955 17.1926H48.9887V2.93514H72.0955V17.1926ZM31.7961 17.1926V2.93514H46.0639V17.1926H31.7961ZM24.3098 98.8422H2.93772V68.6157H24.3201L24.3098 98.8422ZM24.3098 65.678H2.93772V58.9429H24.3201L24.3098 65.678ZM62.6396 98.8422H41.2546V68.6157H62.6396V98.8422ZM62.6396 65.678H41.2546V58.9429H62.6396V65.678ZM79.6773 58.9274H90.1814C90.2097 58.9274 90.2356 58.9429 90.2665 58.9429C90.2975 58.9429 90.3208 58.9274 90.3517 58.9274H101.065V65.6625H79.6851L79.6773 58.9274ZM101.057 98.8241H79.6851V68.5976H101.065L101.057 98.8241Z" fill="#FAF9F7"/>
</svg>
