<svg width="104" height="104" viewBox="0 0 104 104" fill="none" xmlns="http://www.w3.org/2000/svg">
<path d="M83.221 24.2638C80.7653 24.2601 78.3287 24.6944 76.0257 25.5465C75.091 18.5666 71.6852 12.1523 66.4257 7.46656C61.1662 2.7808 54.401 0.133628 47.3566 0.00492358C40.3122 -0.123781 33.4548 2.2745 28.0275 6.76501C22.6001 11.2555 18.9621 17.5411 17.7728 24.4822C13.024 25.1798 8.66271 27.4978 5.4288 31.043C2.19489 34.5883 0.287432 39.1424 0.0299578 43.9331C-0.227516 48.7238 1.18085 53.456 4.01617 57.3271C6.85149 61.1982 10.9392 63.9698 15.586 65.1719V72.7989C15.586 73.7183 15.9514 74.6001 16.6019 75.2503C17.2523 75.9004 18.1345 76.2657 19.0544 76.2657H38.131V83.1992H13.8517V90.1328H38.131V97.0664H13.8517V104H41.5995C42.5193 104 43.4016 103.635 44.052 102.985C44.7025 102.334 45.0679 101.453 45.0679 100.533V76.2657H58.9418V100.533C58.9418 101.453 59.3072 102.334 59.9577 102.985C60.6081 103.635 61.4903 104 62.4102 104H90.1579V97.0664H65.8787V90.1328H90.1579V83.1992H65.8787V76.2657H84.9553C85.8751 76.2657 86.7574 75.9004 87.4078 75.2503C88.0583 74.6001 88.4237 73.7183 88.4237 72.7989V65.1719C93.3201 63.9027 97.5859 60.8933 100.422 56.7071C103.259 52.5209 104.472 47.4449 103.834 42.4294C103.196 37.4138 100.751 32.8025 96.957 29.4588C93.1628 26.1151 88.2794 24.2682 83.221 24.2638ZM81.4868 69.3321H22.5229V48.5313H81.4868V69.3321ZM88.4237 57.9107V45.0645C88.4237 44.1451 88.0583 43.2633 87.4078 42.6131C86.7574 41.963 85.8751 41.5977 84.9553 41.5977H19.0544C18.1345 41.5977 17.2523 41.963 16.6019 42.6131C15.9514 43.2633 15.586 44.1451 15.586 45.0645V57.9107C12.6139 56.7034 10.1523 54.5038 8.62024 51.6865C7.08815 48.8691 6.58027 45.6082 7.18303 42.4587C7.7858 39.3091 9.46196 36.4658 11.9262 34.4125C14.3904 32.3593 17.4904 31.2231 20.6985 31.1974H20.8719C21.7535 31.1993 22.6027 30.8656 23.247 30.2642C23.8912 29.6627 24.2822 28.8386 24.3404 27.9594C24.737 22.1352 27.381 16.6925 31.7149 12.7792C36.0487 8.8658 41.7336 6.78756 47.5709 6.9827C53.4081 7.17784 58.9414 9.63111 63.004 13.8252C67.0665 18.0192 69.3408 23.6263 69.3472 29.464C69.3472 29.9164 69.3125 30.3601 69.2813 30.8022L69.2639 31.0483C69.2173 31.7135 69.3636 32.378 69.6853 32.9622C70.007 33.5463 70.4904 34.0254 71.0776 34.3419C71.6648 34.6584 72.3308 34.7989 72.9959 34.7467C73.661 34.6944 74.2969 34.4515 74.8273 34.0471C77.2328 32.1953 80.1848 31.1931 83.221 31.1974C86.4367 31.2025 89.5508 32.324 92.0308 34.3701C94.5107 36.4162 96.2026 39.2598 96.8171 42.4148C97.4315 45.5697 96.9304 48.8401 95.3994 51.6666C93.8684 54.4931 91.4027 56.7003 88.4237 57.9107Z" fill="#FAF9F7"/>
</svg>
