<svg width="104" height="104" viewBox="0 0 104 104" fill="none" xmlns="http://www.w3.org/2000/svg">
<path d="M95.3333 8.66669C90.5537 8.66669 86.6667 12.5537 86.6667 17.3334V45.5087C84.591 45.5997 82.6518 46.4512 81.1742 47.9289L65 64.103V104H93.1667V78.897L104 68.0637V17.3334C104 12.5537 100.113 8.66669 95.3333 8.66669ZM99.6667 66.2697L88.8333 77.103V99.6667H69.3333V65.897L84.2378 50.9925C84.9745 50.2559 85.995 49.8334 87.0393 49.8334C89.2233 49.8334 91 51.61 91 53.794C91 54.8362 90.5775 55.8589 89.8408 56.5955L80.8015 65.6348L83.8652 68.6985L92.9045 59.6592C94.471 58.0927 95.3333 56.0105 95.3333 53.794C95.3333 50.6545 93.5783 47.9159 91 46.5097V17.3334C91 14.9435 92.9435 13 95.3333 13C97.7232 13 99.6667 14.9435 99.6667 17.3334V66.2697Z" fill="#FAF9F7"/>
<path d="M17.3333 45.5087V17.3334C17.3333 12.5537 13.4463 8.66669 8.66667 8.66669C3.887 8.66669 0 12.5537 0 17.3334V68.0637L10.8333 78.897V104H39V64.103L22.8258 47.9289C21.3482 46.449 19.409 45.5997 17.3333 45.5087ZM34.6667 99.6667H15.1667V77.103L4.33333 66.2697V17.3334C4.33333 14.9435 6.27683 13 8.66667 13C11.0565 13 13 14.9435 13 17.3334V46.5097C10.4217 47.9159 8.66667 50.6545 8.66667 53.794C8.66667 56.0083 9.529 58.0927 11.0955 59.6592L20.1348 68.6985L23.1985 65.6348L14.1592 56.5955C13.4225 55.8589 13 54.8383 13 53.794C13 51.61 14.7767 49.8334 16.9607 49.8334C18.0028 49.8334 19.0255 50.2559 19.7622 50.9925L34.6667 65.897V99.6667Z" fill="#FAF9F7"/>
<path d="M41.1667 6.5C41.1667 2.91633 38.2504 0 34.6667 0C31.0831 0 28.1667 2.91633 28.1667 6.5C28.1667 9.321 29.9846 11.7043 32.5001 12.6013V18.2303L41.1667 26.897V32.5H45.5001V25.103L36.8334 16.4363V12.6013C39.3489 11.7043 41.1667 9.321 41.1667 6.5ZM34.6667 4.33333C35.8627 4.33333 36.8334 5.304 36.8334 6.5C36.8334 7.696 35.8627 8.66667 34.6667 8.66667C33.4707 8.66667 32.5001 7.696 32.5001 6.5C32.5001 5.304 33.4707 4.33333 34.6667 4.33333Z" fill="#FAF9F7"/>
<path d="M54.1669 32.5V12.6013C56.6824 11.7043 58.5002 9.321 58.5002 6.5C58.5002 2.91633 55.5839 0 52.0002 0C48.4166 0 45.5002 2.91633 45.5002 6.5C45.5002 9.321 47.3181 11.7043 49.8336 12.6013V32.5H54.1669ZM52.0002 4.33333C53.1962 4.33333 54.1669 5.304 54.1669 6.5C54.1669 7.696 53.1962 8.66667 52.0002 8.66667C50.8042 8.66667 49.8336 7.696 49.8336 6.5C49.8336 5.304 50.8042 4.33333 52.0002 4.33333Z" fill="#FAF9F7"/>
<path d="M71.5 12.6013C74.0155 11.7043 75.8333 9.321 75.8333 6.5C75.8333 2.91633 72.917 0 69.3333 0C65.7497 0 62.8333 2.91633 62.8333 6.5C62.8333 9.321 64.6512 11.7043 67.1667 12.6013V16.4363L58.5 25.103V32.5H62.8333V26.897L71.5 18.2303V12.6013ZM69.3333 4.33333C70.5293 4.33333 71.5 5.304 71.5 6.5C71.5 7.696 70.5293 8.66667 69.3333 8.66667C68.1373 8.66667 67.1667 7.696 67.1667 6.5C67.1667 5.304 68.1373 4.33333 69.3333 4.33333Z" fill="#FAF9F7"/>
<path d="M71.5 28.1666H67.1667V36.8333H36.8333V28.1666H32.5V41.1666H71.5V28.1666Z" fill="#FAF9F7"/>
</svg>
