<svg width="60" height="60" viewBox="0 0 60 60" fill="none" xmlns="http://www.w3.org/2000/svg">
<path d="M48.4615 0H11.5385C8.47827 0 5.54342 1.21566 3.37954 3.37954C1.21566 5.54342 0 8.47827 0 11.5385V48.4615C0 51.5217 1.21566 54.4566 3.37954 56.6205C5.54342 58.7843 8.47827 60 11.5385 60H30C30.612 60 31.199 59.7569 31.6318 59.3241C32.0646 58.8913 32.3077 58.3043 32.3077 57.6923V39.2308C32.3077 38.6187 32.0646 38.0318 31.6318 37.599C31.199 37.1662 30.612 36.9231 30 36.9231H27.6923V32.3077H30C30.612 32.3077 31.199 32.0646 31.6318 31.6318C32.0646 31.199 32.3077 30.612 32.3077 30V21.9231C32.3077 20.393 32.9155 18.9256 33.9975 17.8436C35.0794 16.7617 36.5468 16.1538 38.0769 16.1538H43.8462V20.7692H41.5385C40.3144 20.7692 39.1404 21.2555 38.2749 22.121C37.4093 22.9866 36.9231 24.1605 36.9231 25.3846V30C36.9231 30.612 37.1662 31.199 37.599 31.6318C38.0318 32.0646 38.6187 32.3077 39.2308 32.3077H43.2L42.0462 36.9231H39.2308C38.6187 36.9231 38.0318 37.1662 37.599 37.599C37.1662 38.0318 36.9231 38.6187 36.9231 39.2308V48.4615C36.9231 49.0736 37.1662 49.6605 37.599 50.0933C38.0318 50.5261 38.6187 50.7692 39.2308 50.7692C39.8428 50.7692 40.4298 50.5261 40.8626 50.0933C41.2953 49.6605 41.5385 49.0736 41.5385 48.4615V41.5385H43.8462C44.3733 41.5538 44.8898 41.3882 45.3097 41.069C45.7296 40.7499 46.0275 40.2966 46.1538 39.7846L48.4615 30.5538C48.548 30.2132 48.5555 29.8574 48.4835 29.5135C48.4115 29.1695 48.2619 28.8466 48.0462 28.5692C47.8217 28.2848 47.5335 28.0571 47.2047 27.9048C46.876 27.7524 46.516 27.6797 46.1538 27.6923H41.5385V25.3846H46.1538C46.7659 25.3846 47.3529 25.1415 47.7856 24.7087C48.2184 24.2759 48.4615 23.689 48.4615 23.0769V13.8462C48.4615 13.2341 48.2184 12.6471 47.7856 12.2144C47.3529 11.7816 46.7659 11.5385 46.1538 11.5385H38.0769C35.3246 11.5446 32.6868 12.6406 30.7406 14.5868C28.7945 16.533 27.6984 19.1708 27.6923 21.9231V27.6923H25.3846C24.7726 27.6923 24.1856 27.9354 23.7528 28.3682C23.3201 28.801 23.0769 29.388 23.0769 30V39.2308C23.0769 39.8428 23.3201 40.4298 23.7528 40.8626C24.1856 41.2953 24.7726 41.5385 25.3846 41.5385H27.6923V55.3846H11.5385C9.70235 55.3846 7.94144 54.6552 6.64311 53.3569C5.34478 52.0586 4.61538 50.2977 4.61538 48.4615V11.5385C4.61538 9.70235 5.34478 7.94144 6.64311 6.64311C7.94144 5.34478 9.70235 4.61538 11.5385 4.61538H48.4615C50.2977 4.61538 52.0586 5.34478 53.3569 6.64311C54.6552 7.94144 55.3846 9.70235 55.3846 11.5385V48.4615C55.3846 50.2977 54.6552 52.0586 53.3569 53.3569C52.0586 54.6552 50.2977 55.3846 48.4615 55.3846H39.2308C38.6187 55.3846 38.0318 55.6277 37.599 56.0605C37.1662 56.4933 36.9231 57.0803 36.9231 57.6923C36.9231 58.3043 37.1662 58.8913 37.599 59.3241C38.0318 59.7569 38.6187 60 39.2308 60H48.4615C51.5217 60 54.4566 58.7843 56.6205 56.6205C58.7843 54.4566 60 51.5217 60 48.4615V11.5385C60 8.47827 58.7843 5.54342 56.6205 3.37954C54.4566 1.21566 51.5217 0 48.4615 0Z" fill="black"/>
</svg>
