<svg width="104" height="110" viewBox="0 0 104 110" fill="none" xmlns="http://www.w3.org/2000/svg">
<path d="M97.7462 39.1261C99.8442 36.139 103.293 29.0737 97.7462 20.2094C96.6282 18.3688 95.0962 16.8144 93.272 15.6697C92.8708 13.5717 91.2946 8.52058 85.0319 4.15399C79.0157 -0.0342704 70.2353 0.629242 68.6408 0.794464C67.2745 0.359225 65.8582 0.10012 64.4263 0.0234264C59.9233 -0.189003 56.4615 1.04361 53.9937 3.70815C53.1808 4.61818 52.5098 5.64553 52.0031 6.75559C51.4966 5.64489 50.8245 4.61741 50.01 3.70815C47.5448 1.04361 44.0148 -0.189003 39.5826 0.0234264C38.1508 0.101419 36.7347 0.360494 35.3681 0.794464C33.7815 0.629242 24.9906 -0.0342706 18.9586 4.16186C12.6907 8.53107 11.1145 13.6031 10.7159 15.6802C8.89842 16.8269 7.37218 18.38 6.25749 20.2173C0.715986 29.0816 4.17517 36.1468 6.25749 39.1366C3.70048 41.3238 -1.05425 46.4483 0.209828 53.4716C1.07003 58.2447 3.83948 61.9137 7.73139 63.6C9.11086 64.7198 16.5773 70.0541 33.0078 70.2167V83.4267H27.1857C26.7514 81.3127 25.548 79.4352 23.8086 78.1578C22.0692 76.8804 19.9176 76.2941 17.7706 76.5123C15.6236 76.7306 13.634 77.7379 12.1872 79.3392C10.7404 80.9405 9.93948 83.0218 9.93948 85.1799C9.93948 87.3379 10.7404 89.4192 12.1872 91.0205C13.634 92.6218 15.6236 93.6292 17.7706 93.8474C19.9176 94.0657 22.0692 93.4793 23.8086 92.2019C25.548 90.9245 26.7514 89.047 27.1857 86.9331H34.7675C34.9992 86.9344 35.2287 86.8899 35.443 86.802C35.6573 86.7141 35.852 86.5845 36.0159 86.4209C36.1798 86.2572 36.3096 86.0627 36.3978 85.8486C36.4861 85.6344 36.531 85.4049 36.5299 85.1733V70.1774H36.6034C36.6663 70.1774 36.7187 70.1433 36.7791 70.1354C37.3288 70.233 37.8841 70.2961 38.4418 70.3243C44.3531 70.3243 47.9513 68.5357 50.1647 65.9026V92.3408C48.056 92.7991 46.1924 94.0237 44.9348 95.7773C43.6773 97.531 43.1154 99.689 43.3578 101.833C43.6003 103.978 44.63 105.956 46.2473 107.384C47.8647 108.813 49.9547 109.59 52.1125 109.566C54.2704 109.542 56.3424 108.718 57.9273 107.253C59.5123 105.789 60.4973 103.788 60.6917 101.639C60.886 99.4897 60.2758 97.3449 58.9793 95.6199C57.6828 93.8948 55.7922 92.7124 53.6737 92.3015V65.6535C55.8662 68.4203 59.4932 70.3243 65.5828 70.3243C66.1422 70.2961 66.6993 70.233 67.2508 70.1354C67.3111 70.1354 67.3636 70.1748 67.4265 70.1774H67.4764V85.1733C67.4764 85.4036 67.5218 85.6316 67.61 85.8443C67.6982 86.0571 67.8274 86.2503 67.9904 86.413C68.1534 86.5757 68.3468 86.7047 68.5596 86.7926C68.7725 86.8805 69.0006 86.9255 69.2309 86.9252H76.8101C77.2444 89.0391 78.4478 90.9166 80.1872 92.194C81.9266 93.4714 84.0782 94.0578 86.2252 93.8395C88.3722 93.6213 90.3618 92.6139 91.8086 91.0126C93.2553 89.4113 94.0563 87.3301 94.0563 85.172C94.0563 83.0139 93.2553 80.9327 91.8086 79.3314C90.3618 77.7301 88.3722 76.7227 86.2252 76.5045C84.0782 76.2862 81.9266 76.8726 80.1872 78.15C78.4478 79.4274 77.2444 81.3049 76.8101 83.4188H70.9932V70.2089C87.4132 70.0463 94.8797 64.7172 96.267 63.5947C100.162 61.911 102.928 58.2368 103.789 53.4637C105.058 46.4404 100.303 41.3159 97.7462 39.1261ZM18.6518 90.3765C17.622 90.377 16.6151 90.0721 15.7586 89.5003C14.9021 88.9284 14.2345 88.1154 13.8401 87.1641C13.4458 86.2127 13.3425 85.1658 13.5433 84.1557C13.744 83.1457 14.2399 82.2178 14.9681 81.4896C15.6963 80.7614 16.6241 80.2656 17.6342 80.0648C18.6443 79.864 19.6912 79.9673 20.6426 80.3616C21.5939 80.756 22.4069 81.4236 22.9788 82.2801C23.5506 83.1366 23.8555 84.1435 23.855 85.1733C23.8529 86.5526 23.3041 87.8749 22.3287 88.8502C21.3534 89.8256 20.0311 90.3744 18.6518 90.3765ZM85.3519 79.9675C86.3816 79.967 87.3883 80.2719 88.2448 80.8436C89.1012 81.4153 89.7689 82.2281 90.1633 83.1793C90.5577 84.1305 90.6612 85.1773 90.4606 86.1873C90.26 87.1973 89.7644 88.1251 89.0365 88.8535C88.3085 89.5818 87.381 90.0778 86.371 90.2789C85.3611 90.48 84.3143 90.3771 83.3629 89.9831C82.4115 89.5892 81.5983 88.9219 81.0262 88.0658C80.454 87.2096 80.1487 86.203 80.1487 85.1733C80.1494 83.7933 80.6977 82.47 81.6732 81.4939C82.6488 80.5179 83.9718 79.9689 85.3519 79.9675ZM89.0707 13.986C85.0529 13.0891 80.7886 13.8549 77.5077 15.0351C77.5838 12.2053 77.1694 8.00918 74.6229 4.73358C74.4865 4.55786 74.3055 4.43198 74.1613 4.26676C76.9858 4.49755 80.403 5.18991 83.0361 7.02571C86.5189 9.46209 88.2157 12.0584 89.0707 13.986ZM20.9754 7.03096C23.598 5.19515 27.0073 4.51328 29.845 4.27987C29.7007 4.44247 29.5224 4.56573 29.3886 4.74144C26.8395 8.01705 26.4251 12.2106 26.5038 15.0403C23.2256 13.8549 18.9586 13.0917 14.9356 13.9913C15.7879 12.0611 17.4848 9.46471 20.9754 7.03096ZM38.4313 66.8258C35.3052 66.8258 33.1232 65.6587 32.2892 63.5397C31.4815 61.4862 32.082 58.819 33.687 57.3215C35.1059 56.0102 36.9941 55.8503 39.142 56.8809C39.5614 57.0826 40.0438 57.1095 40.483 56.9555C40.9222 56.8016 41.2823 56.4795 41.484 56.0601C41.6857 55.6407 41.7125 55.1583 41.5586 54.7191C41.4046 54.2799 41.0825 53.9198 40.6631 53.7181C39.5568 53.1987 38.3631 52.891 37.1436 52.8107C37.6681 51.8805 38.0333 50.8691 38.2241 49.8183C38.2585 49.5907 38.2478 49.3585 38.1925 49.135C38.1372 48.9115 38.0384 48.7011 37.9018 48.5157C37.7652 48.3304 37.5934 48.1738 37.3963 48.0549C37.1991 47.9359 36.9805 47.857 36.7528 47.8225C36.5252 47.7881 36.293 47.7988 36.0695 47.8541C35.846 47.9094 35.6356 48.0082 35.4502 48.1448C35.2649 48.2815 35.1083 48.4532 34.9894 48.6504C34.8704 48.8475 34.7915 49.0662 34.7571 49.2938C34.4712 51.1794 32.3967 53.6788 31.6309 54.4839C31.6152 54.5023 31.61 54.5259 31.5916 54.5468C31.4998 54.6255 31.387 54.6622 31.2953 54.7462C28.6517 57.2035 27.6997 61.439 29.0241 64.8169C29.3048 65.4616 29.668 66.0673 30.1046 66.6186C23.9022 66.2829 19.276 65.1525 16.024 63.9698C17.9181 63.3408 19.6113 62.2204 20.9308 60.723C21.2146 60.3721 21.352 59.9252 21.3144 59.4754C21.2768 59.0257 21.067 58.6078 20.7289 58.3089C20.3908 58.01 19.9503 57.8531 19.4994 57.8709C19.0484 57.8888 18.6217 58.08 18.3082 58.4046C17.3239 59.5254 16.0407 60.3427 14.6088 60.7607C13.1769 61.1787 11.6556 61.1802 10.2228 60.765C6.84758 59.8261 4.40333 56.86 3.66639 52.8343C2.70652 47.5105 6.65088 43.4087 8.62831 41.725C9.65898 42.622 11.2509 43.8415 13.0211 44.5207C13.223 44.5977 13.4371 44.6377 13.6532 44.6387C14.0624 44.638 14.4585 44.4942 14.7729 44.2323C15.0874 43.9704 15.3003 43.6068 15.375 43.2044C15.4497 42.8021 15.3814 42.3863 15.1819 42.0289C14.9824 41.6716 14.6643 41.3953 14.2826 41.2477C12.0954 40.4111 10.0419 38.2554 10.0157 38.2239C9.98942 38.1924 9.99467 38.2239 9.9868 38.2029C9.98248 38.1945 9.9772 38.1866 9.97107 38.1793C9.70881 37.9171 3.38839 31.4157 9.22888 22.0688C14.9776 12.8688 27.1988 19.1237 27.7207 19.3938C28.0143 19.5475 28.3455 19.6148 28.6759 19.5881C29.0063 19.5613 29.3223 19.4415 29.5874 19.2426C29.8525 19.0436 30.0558 18.7736 30.1738 18.4639C30.2918 18.1542 30.3196 17.8173 30.2541 17.4924C30.2541 17.4269 28.9795 10.9753 32.1555 6.89196C33.7631 4.82799 36.3175 3.69766 39.7609 3.52719C43.0759 3.34361 45.7011 4.21955 47.4398 6.08158C49.6428 8.45764 50.1673 12.0296 50.2329 14.4345C50.1921 14.5623 50.1657 14.6942 50.1542 14.8279C50.1542 18.0064 49.2678 20.1963 47.592 21.1614C46.0918 22.0321 44.1013 21.8144 42.992 21.1614C41.2689 20.1648 40.2855 19.1053 40.1491 18.1009C40.0048 17.023 40.8598 16.1103 40.9044 16.0657C41.231 15.7389 41.4155 15.2965 41.4179 14.8345C41.4202 14.3725 41.2403 13.9282 40.917 13.5981C40.5938 13.2679 40.1534 13.0786 39.6915 13.0712C39.2295 13.0638 38.7833 13.2389 38.4496 13.5586C38.2294 13.7736 36.3227 15.7169 36.6637 18.5074C36.9259 20.6815 38.4706 22.596 41.2348 24.1957C42.4922 24.8852 43.9052 25.2409 45.3392 25.229C46.7439 25.2378 48.1262 24.8759 49.3465 24.18C49.6276 24.0164 49.8974 23.8341 50.1542 23.6345V40.183C49.7685 39.7452 49.356 39.3318 48.919 38.9451C45.1949 35.7325 39.8291 34.3713 32.9213 34.9063C30.7372 35.0431 28.6173 35.6985 26.7372 36.8182C26.6429 36.7901 26.5464 36.7699 26.4487 36.7579C26.4041 36.7579 22.1057 36.6504 19.4202 32.1867C17.9988 29.8264 19.4989 26.4171 19.512 26.3803C19.6403 25.971 19.6142 25.5288 19.4385 25.1374C19.2629 24.746 18.95 24.4325 18.5589 24.2562C18.1679 24.0799 17.7257 24.053 17.3161 24.1805C16.9066 24.308 16.5579 24.5812 16.3361 24.9484C16.2443 25.1556 14.0466 30.0651 16.4279 34.0173C18.0042 36.7244 20.5265 38.7524 23.5088 39.7109C20.5951 43.3825 19.8372 48.3051 20.0077 51.4837C20.0331 51.9306 20.2284 52.3509 20.5536 52.6586C20.8788 52.9662 21.3093 53.1379 21.7569 53.1385H21.8435C22.0737 53.1261 22.2991 53.0684 22.507 52.9687C22.7148 52.869 22.9009 52.7293 23.0547 52.5575C23.2084 52.3858 23.3267 52.1854 23.4028 51.9678C23.479 51.7502 23.5114 51.5197 23.4983 51.2896C23.4695 50.7992 22.9476 39.2257 33.2019 38.4258C48.9137 37.2063 50.0991 47.4134 50.1673 48.0376V50.6995C50.1673 60.4345 49.3386 66.8179 38.4313 66.8179V66.8258ZM57.209 100.851C57.2079 101.88 56.9017 102.886 56.3291 103.742C55.7564 104.597 54.943 105.264 53.9917 105.657C53.0404 106.05 51.9938 106.152 50.9843 105.951C49.9748 105.75 49.0477 105.253 48.3202 104.525C47.5927 103.797 47.0974 102.869 46.897 101.86C46.6965 100.85 46.7999 99.8034 47.1941 98.8524C47.5883 97.9015 48.2555 97.0888 49.1115 96.517C49.9675 95.9452 50.9737 95.64 52.0031 95.64C53.3829 95.6414 54.7058 96.19 55.6818 97.1654C56.6577 98.1408 57.2069 99.4634 57.209 100.843V100.851ZM100.337 52.8579C99.6134 56.8809 97.1666 59.8444 93.7939 60.786C92.3607 61.1998 90.8394 61.1976 89.4073 60.7797C87.9753 60.3618 86.6916 59.5454 85.7059 58.4256C85.3924 58.1009 84.9658 57.9098 84.5148 57.8919C84.0638 57.8741 83.6234 58.031 83.2852 58.3299C82.9471 58.6288 82.7374 59.0467 82.6998 59.4964C82.6621 59.9462 82.7995 60.3931 83.0833 60.744C84.404 62.225 86.0907 63.3329 87.9744 63.9566C84.7198 65.1368 80.0936 66.2671 73.9017 66.6028C74.3379 66.0527 74.7003 65.4479 74.9795 64.8037C76.3066 61.4259 75.3546 57.1983 72.7084 54.733C72.6192 54.6491 72.5065 54.6124 72.4147 54.5337C72.3963 54.5127 72.3911 54.4891 72.3727 54.4708C71.5991 53.6657 69.5325 51.1663 69.2492 49.2807C69.1742 48.8237 68.9241 48.414 68.552 48.1383C68.1799 47.8627 67.7151 47.7428 67.2561 47.8042C66.796 47.8734 66.3822 48.1226 66.1058 48.4969C65.8294 48.8711 65.713 49.3399 65.7822 49.8C65.972 50.8506 66.3363 51.862 66.86 52.7923C65.6412 52.8714 64.4481 53.1792 63.3432 53.6997C62.922 53.9001 62.5977 54.2595 62.4415 54.6989C62.2854 55.1384 62.3102 55.6219 62.5105 56.043C62.7108 56.4642 63.0702 56.7885 63.5097 56.9447C63.9491 57.1008 64.4326 57.076 64.8538 56.8757C66.999 55.845 68.8899 55.9945 70.3061 57.3163C71.9138 58.8059 72.5143 61.4809 71.7039 63.5344C70.8726 65.6535 68.6906 66.8205 65.5619 66.8205C54.6598 66.8205 53.8442 60.4372 53.8442 50.7021V48.0533C54.2116 45.5552 55.4655 43.2727 57.3768 41.6228C60.3665 39.0422 64.8695 37.9695 70.7887 38.4258C80.9984 39.2126 80.5184 50.8018 80.4922 51.2948C80.4694 51.7579 80.631 52.2111 80.9417 52.5552C81.2523 52.8993 81.6867 53.1062 82.1497 53.1306H82.2467C82.6941 53.13 83.1243 52.9582 83.4491 52.6505C83.7738 52.3428 83.9686 51.9225 83.9934 51.4758C84.1691 48.2972 83.4059 43.3694 80.4896 39.703C83.4722 38.745 85.9946 36.7168 87.5705 34.0094C89.9519 30.0572 87.7541 25.1477 87.6623 24.9405C87.468 24.5188 87.1144 24.1913 86.6791 24.0299C86.2438 23.8684 85.7621 23.886 85.3398 24.079C84.9175 24.2719 84.5888 24.6244 84.4259 25.0592C84.263 25.4941 84.2791 25.9757 84.4707 26.3987C84.4864 26.4328 85.9813 29.8526 84.5651 32.1998C81.911 36.5979 77.7018 36.7658 77.5339 36.771C77.4351 36.7823 77.3376 36.8034 77.2428 36.8339C75.3635 35.7121 73.2433 35.0557 71.0588 34.9195C64.1667 34.3818 58.8009 35.7456 55.0768 38.9582C54.6375 39.3451 54.2232 39.7594 53.8363 40.1987V23.6397C54.0972 23.8411 54.3705 24.0259 54.6546 24.1931C55.8749 24.8891 57.2571 25.2509 58.6619 25.2421C60.0966 25.2535 61.5103 24.8978 62.7688 24.2088C65.5304 22.6091 67.0646 20.6946 67.3374 18.5205C67.6783 15.7301 65.7638 13.7998 65.5514 13.5717C65.2175 13.2472 64.7684 13.0686 64.3029 13.0753C63.8374 13.0819 63.3936 13.2732 63.0691 13.6071C62.7446 13.9409 62.5661 14.39 62.5727 14.8555C62.5794 15.3211 62.7706 15.7649 63.1045 16.0893C63.1045 16.0893 63.9857 17.0177 63.8519 18.0904C63.7287 19.1027 62.7452 20.1675 61.0117 21.1745C59.8971 21.8171 57.9092 22.0321 56.4091 21.1745C54.7332 20.2094 53.8468 18.0274 53.8468 14.841C53.8361 14.7008 53.8079 14.5625 53.7629 14.4293C53.8363 12.0689 54.3477 8.48386 56.569 6.09732C58.2999 4.23266 60.9225 3.35672 64.2453 3.5403C67.6757 3.70815 70.2274 4.85159 71.8298 6.89196C75.0005 10.9491 73.7601 17.4426 73.7469 17.5082C73.6831 17.8326 73.7122 18.1686 73.8307 18.4773C73.9493 18.786 74.1526 19.055 74.4172 19.2533C74.6819 19.4516 74.9971 19.5713 75.3267 19.5984C75.6562 19.6256 75.9868 19.5592 76.2803 19.4069C76.8049 19.1446 89.0182 12.8714 94.7721 22.0819C100.61 31.4288 94.3001 37.9197 94.0326 38.1846C94.0326 38.1846 94.0326 38.2082 94.0116 38.216C93.9906 38.2239 93.9932 38.216 93.9854 38.237C93.4163 38.8428 91.5464 40.5606 89.7158 41.2661C89.3341 41.4137 89.016 41.69 88.8165 42.0473C88.617 42.4046 88.5487 42.8204 88.6234 43.2228C88.6981 43.6251 88.911 43.9887 89.2255 44.2507C89.5399 44.5126 89.936 44.6564 90.3452 44.6571C90.5613 44.6561 90.7754 44.6161 90.9773 44.5391C92.7397 43.8598 94.3394 42.6403 95.3675 41.7434C97.3528 43.414 101.308 47.5157 100.337 52.8422V52.8579Z" fill="#FAF9F7"/>
</svg>
