<svg width="60" height="60" viewBox="0 0 60 60" fill="none" xmlns="http://www.w3.org/2000/svg">
<path fill-rule="evenodd" clip-rule="evenodd" d="M18.5673 50.0129V23.2716H9.98694V50.0129H18.5673ZM14.5975 19.2237C17.4576 19.2237 19.2393 17.1763 19.2393 14.6131C19.1924 12.0031 17.4576 10.0026 14.6444 10.0026C11.8312 10.0026 10.0026 12.0031 10.0026 14.6131C10.0026 17.1763 11.7843 19.2237 14.535 19.2237H14.5975Z" fill="black"/>
<path fill-rule="evenodd" clip-rule="evenodd" d="M40.1041 22.6621C35.556 22.6621 33.6024 25.2253 32.3521 27.007V23.2873H23.7561V50.0129H32.3521V34.7903C32.3521 34.0088 32.4146 33.2273 32.649 32.6803C33.2742 31.1174 34.6808 29.5076 37.0564 29.5076C40.1666 29.5076 41.4169 31.8989 41.4169 35.3998V50.0129H50.0129V34.3995C50.0129 26.3818 45.7618 22.6621 40.1041 22.6621Z" fill="black"/>
<path d="M55.2018 0H5.12633C2.39124 0 0 1.96926 0 4.67309V54.858C0 57.5774 2.39124 59.9999 5.12633 59.9999H55.1862C57.9369 59.9999 59.9999 57.5618 59.9999 54.858V4.67309C60.0155 1.96926 57.9369 0 55.2018 0ZM54.7017 55.0143C54.5298 55.0143 5.76712 55.0143 5.4858 55.0143C5.20447 55.0143 5.0013 54.7954 5.0013 54.5298C5.0013 54.2641 5.0013 5.4858 5.0013 5.31388C5.0013 5.14196 5.15759 5.0013 5.31388 5.0013C5.47017 5.0013 54.5454 5.0013 54.7017 5.0013C54.858 5.0013 55.0143 5.15759 55.0143 5.31388C55.0143 8.95544 55.0143 54.5298 55.0143 54.7017C55.0143 54.8423 54.8736 55.0143 54.7017 55.0143Z" fill="black"/>
</svg>
