<svg width="71" height="77" viewBox="0 0 71 77" fill="none" xmlns="http://www.w3.org/2000/svg">
<path d="M70.8009 37.6743C63.9198 23.0932 50.5462 14.0351 35.8986 14.0351C29.5986 14.0173 23.3927 15.7056 17.8357 18.9491L18.9304 21.2031C24.1506 18.1562 29.9804 16.5702 35.8986 16.5869C49.471 16.5869 61.8865 24.8735 68.4434 38.2589C63.6657 48.0027 55.5453 55.3032 46.0783 58.3386L46.7351 60.7873C57.002 57.496 65.7733 49.4976 70.8009 38.8439C70.8863 38.6631 70.9308 38.4626 70.9308 38.2591C70.9308 38.0557 70.8863 37.8552 70.8009 37.6743Z" fill="#FAF9F7"/>
<path d="M35.8987 59.9313C22.3263 59.9313 9.91085 51.6447 3.35387 38.2592C6.47042 31.8717 11.06 26.4847 16.6679 22.6316L15.429 20.4684C9.29279 24.6848 4.30799 30.6279 0.997526 37.6743C0.912195 37.8552 0.867676 38.0557 0.867676 38.2591C0.867676 38.4626 0.912195 38.6631 0.997526 38.8439C7.87868 53.4251 21.2523 62.4831 35.8987 62.4831C38.7337 62.4838 41.5602 62.1434 44.327 61.468L43.8161 58.9779C41.217 59.6123 38.5618 59.932 35.8987 59.9313Z" fill="#FAF9F7"/>
<path d="M57.5942 7.65547H70.9284V5.10364H56.9165C56.7107 5.10364 56.5085 5.1631 56.3304 5.27601C56.1524 5.38891 56.0048 5.55124 55.9027 5.74654L51.2321 14.678L53.2597 15.944L57.5942 7.65547Z" fill="#FAF9F7"/>
<path d="M70.9284 10.2073H62.7548V12.7592H70.9284V10.2073Z" fill="#FAF9F7"/>
<path d="M60.4194 10.2073H58.0841V12.7592H60.4194V10.2073Z" fill="#FAF9F7"/>
<path d="M70.9284 0H67.4254V2.55183H70.9284V0Z" fill="#FAF9F7"/>
<path d="M65.0901 0H56.9165V2.55183H65.0901V0Z" fill="#FAF9F7"/>
<path d="M14.2031 68.8995H0.868896V71.4514H14.8808C15.0866 71.4514 15.2888 71.3919 15.4669 71.279C15.6449 71.1661 15.7925 71.0038 15.8946 70.8085L20.5652 61.877L18.5376 60.611L14.2031 68.8995Z" fill="#FAF9F7"/>
<path d="M9.0425 63.7958H0.868896V66.3477H9.0425V63.7958Z" fill="#FAF9F7"/>
<path d="M13.7131 63.7958H11.3778V66.3477H13.7131V63.7958Z" fill="#FAF9F7"/>
<path d="M4.37187 74.0032H0.868896V76.555H4.37187V74.0032Z" fill="#FAF9F7"/>
<path d="M14.8809 74.0032H6.70728V76.555H14.8809V74.0032Z" fill="#FAF9F7"/>
<path d="M51.7275 30.0745C49.793 25.623 46.3559 22.1633 42.1374 20.4213C37.9188 18.6793 33.2467 18.7905 29.1016 20.7315C24.9564 22.6725 21.6604 26.2924 19.9051 30.8317C18.1499 35.371 18.0718 40.4767 19.6874 45.0775C21.303 49.6783 24.4866 53.4165 28.5701 55.5076C32.6537 57.5988 37.3197 57.8803 41.5892 56.2932C45.8586 54.7061 49.3995 51.3737 51.4689 46.9953C53.5382 42.6168 53.9752 37.5328 52.688 32.8099L50.4498 33.5378C51.5723 37.6484 51.1939 42.0744 49.394 45.8867C47.5942 49.6989 44.5128 52.6011 40.7967 53.9841C37.0806 55.3671 33.0186 55.1232 29.4635 53.3038C25.9084 51.4843 23.1365 48.2308 21.7296 44.226C20.3228 40.2212 20.3903 35.7766 21.9182 31.8251C23.446 27.8736 26.3153 24.7224 29.9238 23.0331C33.5322 21.3437 37.5993 21.2474 41.2714 22.7645C44.9434 24.2816 47.9348 27.294 49.6178 31.1696L51.7275 30.0745Z" fill="#FAF9F7"/>
<path d="M35.8987 31.8979H33.5634V34.4498H35.8987V31.8979Z" fill="#FAF9F7"/>
<path d="M37.0663 37.0016H34.731V39.5534H37.0663V37.0016Z" fill="#FAF9F7"/>
<path d="M33.5633 40.8293H31.228V43.3812H33.5633V40.8293Z" fill="#FAF9F7"/>
<path d="M41.7369 38.2775H39.4016V40.8294H41.7369V38.2775Z" fill="#FAF9F7"/>
<path d="M48.7429 40.8294V35.7257H46.4076V37.0016H45.167C44.9583 35.1856 44.3046 33.465 43.2748 32.0215L44.155 31.0598L44.9807 31.9621L46.6319 30.1576L43.3294 26.5488L41.6786 28.3531L42.5043 29.2554L41.6241 30.2172C40.3031 29.092 38.7283 28.3777 37.0663 28.1499V26.7943H38.234V24.2424H33.5634V26.7943H34.731V28.1499C33.0691 28.3779 31.4945 29.0923 30.1735 30.2176L29.2934 29.2557L30.1191 28.3534L28.4677 26.5491L25.1651 30.1579L26.8163 31.9617L27.642 31.0595L28.5223 32.0212C27.4925 33.4648 26.8389 35.1855 26.6304 37.0016H25.3898V35.7257H23.0544V40.8294H25.3898V39.5534H26.6304C26.839 41.3694 27.4928 43.0901 28.5226 44.5335L27.6423 45.4952L26.8166 44.593L25.1654 46.3975L28.468 50.0062L30.1188 48.2019L29.2931 47.2997L30.1732 46.3378C31.4943 47.463 33.069 48.1773 34.731 48.4051V49.7608H33.5634V52.3126H38.234V49.7608H37.0663V48.4051C38.7282 48.1771 40.3029 47.4628 41.6238 46.3375L42.504 47.2994L41.6783 48.2016L43.3296 50.0059L46.6322 46.3971L44.981 44.5933L44.1553 45.4955L43.2751 44.5338C44.3048 43.0903 44.9585 41.3695 45.167 39.5534H46.4076V40.8294H48.7429ZM33.5634 45.933C32.1777 45.933 30.8232 45.484 29.6711 44.6428C28.5189 43.8016 27.621 42.606 27.0907 41.2072C26.5605 39.8083 26.4217 38.269 26.692 36.784C26.9624 35.299 27.6296 33.9349 28.6094 32.8643C29.5892 31.7936 30.8376 31.0645 32.1966 30.7691C33.5556 30.4737 34.9643 30.6253 36.2444 31.2048C37.5246 31.7842 38.6188 32.7654 39.3886 34.0244C40.1584 35.2833 40.5693 36.7634 40.5693 38.2775C40.654 39.934 40.2444 41.5758 39.4022 42.9563C38.56 44.3368 37.3306 45.3813 35.8987 45.933H33.5634Z" fill="#FAF9F7"/>
</svg>
