<svg width="71" height="77" viewBox="0 0 71 77" fill="none" xmlns="http://www.w3.org/2000/svg">
<path d="M69.933 37.6743C63.0519 23.0931 49.6782 14.0351 35.0307 14.0351C28.7307 14.0172 22.5247 15.7055 16.9678 18.9491L18.0625 21.203C23.2827 18.1561 29.1125 16.5701 35.0307 16.5869C48.6031 16.5869 61.0185 24.8735 67.5755 38.2588C62.7978 48.0027 54.6774 55.3032 45.2104 58.3386L45.8672 60.7872C56.1341 57.496 64.9054 49.4976 69.933 38.8438C70.0183 38.663 70.0629 38.4625 70.0629 38.2591C70.0629 38.0556 70.0183 37.8551 69.933 37.6743Z" fill="#FDEEDA"/>
<path d="M69.933 37.6743C63.0519 23.0931 49.6782 14.0351 35.0307 14.0351C28.7307 14.0172 22.5247 15.7055 16.9678 18.9491L18.0625 21.203C23.2827 18.1561 29.1125 16.5701 35.0307 16.5869C48.6031 16.5869 61.0185 24.8735 67.5755 38.2588C62.7978 48.0027 54.6774 55.3032 45.2104 58.3386L45.8672 60.7872C56.1341 57.496 64.9054 49.4976 69.933 38.8438C70.0183 38.663 70.0629 38.4625 70.0629 38.2591C70.0629 38.0556 70.0183 37.8551 69.933 37.6743Z" fill="black" fill-opacity="0.2"/>
<path d="M69.933 37.6743C63.0519 23.0931 49.6782 14.0351 35.0307 14.0351C28.7307 14.0172 22.5247 15.7055 16.9678 18.9491L18.0625 21.203C23.2827 18.1561 29.1125 16.5701 35.0307 16.5869C48.6031 16.5869 61.0185 24.8735 67.5755 38.2588C62.7978 48.0027 54.6774 55.3032 45.2104 58.3386L45.8672 60.7872C56.1341 57.496 64.9054 49.4976 69.933 38.8438C70.0183 38.663 70.0629 38.4625 70.0629 38.2591C70.0629 38.0556 70.0183 37.8551 69.933 37.6743Z" fill="black" fill-opacity="0.2"/>
<path d="M35.031 59.9312C21.4586 59.9312 9.04317 51.6446 2.48619 38.2591C5.60275 31.8716 10.1923 26.4846 15.8003 22.6315L14.5614 20.4684C8.42512 24.6848 3.44032 30.6279 0.129851 37.6743C0.0445194 37.8551 0 38.0556 0 38.2591C0 38.4625 0.0445194 38.663 0.129851 38.8438C7.011 53.425 20.3846 62.4831 35.031 62.4831C37.866 62.4837 40.6925 62.1433 43.4593 61.4679L42.9484 58.9778C40.3493 59.6122 37.6942 59.932 35.031 59.9312Z" fill="#FDEEDA"/>
<path d="M35.031 59.9312C21.4586 59.9312 9.04317 51.6446 2.48619 38.2591C5.60275 31.8716 10.1923 26.4846 15.8003 22.6315L14.5614 20.4684C8.42512 24.6848 3.44032 30.6279 0.129851 37.6743C0.0445194 37.8551 0 38.0556 0 38.2591C0 38.4625 0.0445194 38.663 0.129851 38.8438C7.011 53.425 20.3846 62.4831 35.031 62.4831C37.866 62.4837 40.6925 62.1433 43.4593 61.4679L42.9484 58.9778C40.3493 59.6122 37.6942 59.932 35.031 59.9312Z" fill="black" fill-opacity="0.2"/>
<path d="M35.031 59.9312C21.4586 59.9312 9.04317 51.6446 2.48619 38.2591C5.60275 31.8716 10.1923 26.4846 15.8003 22.6315L14.5614 20.4684C8.42512 24.6848 3.44032 30.6279 0.129851 37.6743C0.0445194 37.8551 0 38.0556 0 38.2591C0 38.4625 0.0445194 38.663 0.129851 38.8438C7.011 53.425 20.3846 62.4831 35.031 62.4831C37.866 62.4837 40.6925 62.1433 43.4593 61.4679L42.9484 58.9778C40.3493 59.6122 37.6942 59.932 35.031 59.9312Z" fill="black" fill-opacity="0.2"/>
<path d="M56.7265 7.65547H70.0607V5.10364H56.0488C55.843 5.10364 55.6408 5.1631 55.4627 5.27601C55.2847 5.38891 55.1371 5.55124 55.035 5.74654L50.3644 14.678L52.392 15.944L56.7265 7.65547Z" fill="#FDEEDA"/>
<path d="M56.7265 7.65547H70.0607V5.10364H56.0488C55.843 5.10364 55.6408 5.1631 55.4627 5.27601C55.2847 5.38891 55.1371 5.55124 55.035 5.74654L50.3644 14.678L52.392 15.944L56.7265 7.65547Z" fill="black" fill-opacity="0.2"/>
<path d="M56.7265 7.65547H70.0607V5.10364H56.0488C55.843 5.10364 55.6408 5.1631 55.4627 5.27601C55.2847 5.38891 55.1371 5.55124 55.035 5.74654L50.3644 14.678L52.392 15.944L56.7265 7.65547Z" fill="black" fill-opacity="0.2"/>
<path d="M70.0607 10.2073H61.8871V12.7591H70.0607V10.2073Z" fill="#FDEEDA"/>
<path d="M70.0607 10.2073H61.8871V12.7591H70.0607V10.2073Z" fill="black" fill-opacity="0.2"/>
<path d="M70.0607 10.2073H61.8871V12.7591H70.0607V10.2073Z" fill="black" fill-opacity="0.2"/>
<path d="M59.5517 10.2073H57.2164V12.7591H59.5517V10.2073Z" fill="#FDEEDA"/>
<path d="M59.5517 10.2073H57.2164V12.7591H59.5517V10.2073Z" fill="black" fill-opacity="0.2"/>
<path d="M59.5517 10.2073H57.2164V12.7591H59.5517V10.2073Z" fill="black" fill-opacity="0.2"/>
<path d="M70.0607 0H66.5577V2.55183H70.0607V0Z" fill="#FDEEDA"/>
<path d="M70.0607 0H66.5577V2.55183H70.0607V0Z" fill="black" fill-opacity="0.2"/>
<path d="M70.0607 0H66.5577V2.55183H70.0607V0Z" fill="black" fill-opacity="0.2"/>
<path d="M64.2224 0H56.0488V2.55183H64.2224V0Z" fill="#FDEEDA"/>
<path d="M64.2224 0H56.0488V2.55183H64.2224V0Z" fill="black" fill-opacity="0.2"/>
<path d="M64.2224 0H56.0488V2.55183H64.2224V0Z" fill="black" fill-opacity="0.2"/>
<path d="M13.3352 68.8996H0.000976562V71.4514H14.0129C14.2187 71.4514 14.4209 71.392 14.5989 71.2791C14.777 71.1662 14.9246 71.0038 15.0267 70.8085L19.6973 61.8771L17.6697 60.6111L13.3352 68.8996Z" fill="#FDEEDA"/>
<path d="M13.3352 68.8996H0.000976562V71.4514H14.0129C14.2187 71.4514 14.4209 71.392 14.5989 71.2791C14.777 71.1662 14.9246 71.0038 15.0267 70.8085L19.6973 61.8771L17.6697 60.6111L13.3352 68.8996Z" fill="black" fill-opacity="0.2"/>
<path d="M13.3352 68.8996H0.000976562V71.4514H14.0129C14.2187 71.4514 14.4209 71.392 14.5989 71.2791C14.777 71.1662 14.9246 71.0038 15.0267 70.8085L19.6973 61.8771L17.6697 60.6111L13.3352 68.8996Z" fill="black" fill-opacity="0.2"/>
<path d="M8.17458 63.7959H0.000976562V66.3477H8.17458V63.7959Z" fill="#FDEEDA"/>
<path d="M8.17458 63.7959H0.000976562V66.3477H8.17458V63.7959Z" fill="black" fill-opacity="0.2"/>
<path d="M8.17458 63.7959H0.000976562V66.3477H8.17458V63.7959Z" fill="black" fill-opacity="0.2"/>
<path d="M12.8454 63.7959H10.5101V66.3477H12.8454V63.7959Z" fill="#FDEEDA"/>
<path d="M12.8454 63.7959H10.5101V66.3477H12.8454V63.7959Z" fill="black" fill-opacity="0.2"/>
<path d="M12.8454 63.7959H10.5101V66.3477H12.8454V63.7959Z" fill="black" fill-opacity="0.2"/>
<path d="M3.50395 74.0032H0.000976562V76.555H3.50395V74.0032Z" fill="#FDEEDA"/>
<path d="M3.50395 74.0032H0.000976562V76.555H3.50395V74.0032Z" fill="black" fill-opacity="0.2"/>
<path d="M3.50395 74.0032H0.000976562V76.555H3.50395V74.0032Z" fill="black" fill-opacity="0.2"/>
<path d="M14.0134 74.0032H5.83984V76.555H14.0134V74.0032Z" fill="#FDEEDA"/>
<path d="M14.0134 74.0032H5.83984V76.555H14.0134V74.0032Z" fill="black" fill-opacity="0.2"/>
<path d="M14.0134 74.0032H5.83984V76.555H14.0134V74.0032Z" fill="black" fill-opacity="0.2"/>
<path d="M50.8598 30.0744C48.9254 25.623 45.4882 22.1632 41.2697 20.4212C37.0511 18.6792 32.3791 18.7904 28.2339 20.7314C24.0887 22.6724 20.7927 26.2924 19.0375 30.8316C17.2822 35.3709 17.2042 40.4766 18.8197 45.0774C20.4353 49.6782 23.6189 53.4164 27.7025 55.5075C31.786 57.5987 36.4521 57.8803 40.7215 56.2932C44.9909 54.706 48.5318 51.3736 50.6012 46.9952C52.6706 42.6168 53.1075 37.5327 51.8203 32.8098L49.5821 33.5378C50.7046 37.6484 50.3262 42.0743 48.5264 45.8866C46.7265 49.6989 43.6451 52.6011 39.929 53.984C36.2129 55.367 32.151 55.1232 28.5958 53.3037C25.0407 51.4843 22.2688 48.2307 20.8619 44.2259C19.4551 40.2211 19.5227 35.7765 21.0505 31.825C22.5783 27.8735 25.4476 24.7224 29.0561 23.033C32.6646 21.3436 36.7317 21.2474 40.4037 22.7644C44.0757 24.2815 47.0672 27.294 48.7501 31.1695L50.8598 30.0744Z" fill="#FDEEDA"/>
<path d="M50.8598 30.0744C48.9254 25.623 45.4882 22.1632 41.2697 20.4212C37.0511 18.6792 32.3791 18.7904 28.2339 20.7314C24.0887 22.6724 20.7927 26.2924 19.0375 30.8316C17.2822 35.3709 17.2042 40.4766 18.8197 45.0774C20.4353 49.6782 23.6189 53.4164 27.7025 55.5075C31.786 57.5987 36.4521 57.8803 40.7215 56.2932C44.9909 54.706 48.5318 51.3736 50.6012 46.9952C52.6706 42.6168 53.1075 37.5327 51.8203 32.8098L49.5821 33.5378C50.7046 37.6484 50.3262 42.0743 48.5264 45.8866C46.7265 49.6989 43.6451 52.6011 39.929 53.984C36.2129 55.367 32.151 55.1232 28.5958 53.3037C25.0407 51.4843 22.2688 48.2307 20.8619 44.2259C19.4551 40.2211 19.5227 35.7765 21.0505 31.825C22.5783 27.8735 25.4476 24.7224 29.0561 23.033C32.6646 21.3436 36.7317 21.2474 40.4037 22.7644C44.0757 24.2815 47.0672 27.294 48.7501 31.1695L50.8598 30.0744Z" fill="black" fill-opacity="0.2"/>
<path d="M50.8598 30.0744C48.9254 25.623 45.4882 22.1632 41.2697 20.4212C37.0511 18.6792 32.3791 18.7904 28.2339 20.7314C24.0887 22.6724 20.7927 26.2924 19.0375 30.8316C17.2822 35.3709 17.2042 40.4766 18.8197 45.0774C20.4353 49.6782 23.6189 53.4164 27.7025 55.5075C31.786 57.5987 36.4521 57.8803 40.7215 56.2932C44.9909 54.706 48.5318 51.3736 50.6012 46.9952C52.6706 42.6168 53.1075 37.5327 51.8203 32.8098L49.5821 33.5378C50.7046 37.6484 50.3262 42.0743 48.5264 45.8866C46.7265 49.6989 43.6451 52.6011 39.929 53.984C36.2129 55.367 32.151 55.1232 28.5958 53.3037C25.0407 51.4843 22.2688 48.2307 20.8619 44.2259C19.4551 40.2211 19.5227 35.7765 21.0505 31.825C22.5783 27.8735 25.4476 24.7224 29.0561 23.033C32.6646 21.3436 36.7317 21.2474 40.4037 22.7644C44.0757 24.2815 47.0672 27.294 48.7501 31.1695L50.8598 30.0744Z" fill="black" fill-opacity="0.2"/>
<path d="M35.031 31.8979H32.6957V34.4498H35.031V31.8979Z" fill="#FDEEDA"/>
<path d="M35.031 31.8979H32.6957V34.4498H35.031V31.8979Z" fill="black" fill-opacity="0.2"/>
<path d="M35.031 31.8979H32.6957V34.4498H35.031V31.8979Z" fill="black" fill-opacity="0.2"/>
<path d="M36.1986 37.0016H33.8633V39.5534H36.1986V37.0016Z" fill="#FDEEDA"/>
<path d="M36.1986 37.0016H33.8633V39.5534H36.1986V37.0016Z" fill="black" fill-opacity="0.2"/>
<path d="M36.1986 37.0016H33.8633V39.5534H36.1986V37.0016Z" fill="black" fill-opacity="0.2"/>
<path d="M32.6957 40.8293H30.3604V43.3812H32.6957V40.8293Z" fill="#FDEEDA"/>
<path d="M32.6957 40.8293H30.3604V43.3812H32.6957V40.8293Z" fill="black" fill-opacity="0.2"/>
<path d="M32.6957 40.8293H30.3604V43.3812H32.6957V40.8293Z" fill="black" fill-opacity="0.2"/>
<path d="M40.8695 38.2776H38.5342V40.8294H40.8695V38.2776Z" fill="#FDEEDA"/>
<path d="M40.8695 38.2776H38.5342V40.8294H40.8695V38.2776Z" fill="black" fill-opacity="0.2"/>
<path d="M40.8695 38.2776H38.5342V40.8294H40.8695V38.2776Z" fill="black" fill-opacity="0.2"/>
<path d="M47.875 40.8294V35.7257H45.5397V37.0016H44.299C44.0904 35.1856 43.4367 33.465 42.4068 32.0215L43.2871 31.0598L44.1128 31.962L45.764 30.1576L42.4614 26.5488L40.8107 28.3531L41.6363 29.2554L40.7562 30.2172C39.4351 29.092 37.8604 28.3777 36.1984 28.1499V26.7943H37.3661V24.2424H32.6954V26.7943H33.8631V28.1499C32.2012 28.3779 30.6265 29.0923 29.3056 30.2176L28.4255 29.2557L29.2511 28.3534L27.5998 26.5491L24.2972 30.1579L25.9484 31.9617L26.7741 31.0595L27.6544 32.0212C26.6246 33.4648 25.971 35.1855 25.7625 37.0016H24.5218V35.7257H22.1865V40.8294H24.5218V39.5534H25.7625C25.9711 41.3694 26.6249 43.0901 27.6547 44.5335L26.7744 45.4952L25.9487 44.593L24.2975 46.3975L27.6001 50.0062L29.2509 48.2019L28.4252 47.2997L29.3053 46.3378C30.6264 47.463 32.2011 48.1773 33.8631 48.4051V49.7608H32.6954V52.3126H37.3661V49.7608H36.1984V48.4051C37.8603 48.1771 39.435 47.4628 40.7559 46.3375L41.636 47.2994L40.8104 48.2016L42.4617 50.0059L45.7643 46.3971L44.1131 44.5933L43.2874 45.4955L42.4071 44.5338C43.4369 43.0903 44.0906 41.3695 44.299 39.5534H45.5397V40.8294H47.875ZM32.6954 45.933C31.3098 45.933 29.9553 45.484 28.8031 44.6428C27.651 43.8016 26.7531 42.606 26.2228 41.2072C25.6925 39.8083 25.5538 38.269 25.8241 36.784C26.0944 35.299 26.7617 33.9349 27.7415 32.8643C28.7213 31.7936 29.9696 31.0645 31.3287 30.7691C32.6877 30.4737 34.0963 30.6253 35.3765 31.2048C36.6567 31.7842 37.7508 32.7654 38.5207 34.0244C39.2905 35.2833 39.7014 36.7634 39.7014 38.2775C39.7861 39.934 39.3765 41.5758 38.5343 42.9563C37.6921 44.3368 36.4627 45.3813 35.0308 45.933H32.6954Z" fill="#FDEEDA"/>
<path d="M47.875 40.8294V35.7257H45.5397V37.0016H44.299C44.0904 35.1856 43.4367 33.465 42.4068 32.0215L43.2871 31.0598L44.1128 31.962L45.764 30.1576L42.4614 26.5488L40.8107 28.3531L41.6363 29.2554L40.7562 30.2172C39.4351 29.092 37.8604 28.3777 36.1984 28.1499V26.7943H37.3661V24.2424H32.6954V26.7943H33.8631V28.1499C32.2012 28.3779 30.6265 29.0923 29.3056 30.2176L28.4255 29.2557L29.2511 28.3534L27.5998 26.5491L24.2972 30.1579L25.9484 31.9617L26.7741 31.0595L27.6544 32.0212C26.6246 33.4648 25.971 35.1855 25.7625 37.0016H24.5218V35.7257H22.1865V40.8294H24.5218V39.5534H25.7625C25.9711 41.3694 26.6249 43.0901 27.6547 44.5335L26.7744 45.4952L25.9487 44.593L24.2975 46.3975L27.6001 50.0062L29.2509 48.2019L28.4252 47.2997L29.3053 46.3378C30.6264 47.463 32.2011 48.1773 33.8631 48.4051V49.7608H32.6954V52.3126H37.3661V49.7608H36.1984V48.4051C37.8603 48.1771 39.435 47.4628 40.7559 46.3375L41.636 47.2994L40.8104 48.2016L42.4617 50.0059L45.7643 46.3971L44.1131 44.5933L43.2874 45.4955L42.4071 44.5338C43.4369 43.0903 44.0906 41.3695 44.299 39.5534H45.5397V40.8294H47.875ZM32.6954 45.933C31.3098 45.933 29.9553 45.484 28.8031 44.6428C27.651 43.8016 26.7531 42.606 26.2228 41.2072C25.6925 39.8083 25.5538 38.269 25.8241 36.784C26.0944 35.299 26.7617 33.9349 27.7415 32.8643C28.7213 31.7936 29.9696 31.0645 31.3287 30.7691C32.6877 30.4737 34.0963 30.6253 35.3765 31.2048C36.6567 31.7842 37.7508 32.7654 38.5207 34.0244C39.2905 35.2833 39.7014 36.7634 39.7014 38.2775C39.7861 39.934 39.3765 41.5758 38.5343 42.9563C37.6921 44.3368 36.4627 45.3813 35.0308 45.933H32.6954Z" fill="black" fill-opacity="0.2"/>
<path d="M47.875 40.8294V35.7257H45.5397V37.0016H44.299C44.0904 35.1856 43.4367 33.465 42.4068 32.0215L43.2871 31.0598L44.1128 31.962L45.764 30.1576L42.4614 26.5488L40.8107 28.3531L41.6363 29.2554L40.7562 30.2172C39.4351 29.092 37.8604 28.3777 36.1984 28.1499V26.7943H37.3661V24.2424H32.6954V26.7943H33.8631V28.1499C32.2012 28.3779 30.6265 29.0923 29.3056 30.2176L28.4255 29.2557L29.2511 28.3534L27.5998 26.5491L24.2972 30.1579L25.9484 31.9617L26.7741 31.0595L27.6544 32.0212C26.6246 33.4648 25.971 35.1855 25.7625 37.0016H24.5218V35.7257H22.1865V40.8294H24.5218V39.5534H25.7625C25.9711 41.3694 26.6249 43.0901 27.6547 44.5335L26.7744 45.4952L25.9487 44.593L24.2975 46.3975L27.6001 50.0062L29.2509 48.2019L28.4252 47.2997L29.3053 46.3378C30.6264 47.463 32.2011 48.1773 33.8631 48.4051V49.7608H32.6954V52.3126H37.3661V49.7608H36.1984V48.4051C37.8603 48.1771 39.435 47.4628 40.7559 46.3375L41.636 47.2994L40.8104 48.2016L42.4617 50.0059L45.7643 46.3971L44.1131 44.5933L43.2874 45.4955L42.4071 44.5338C43.4369 43.0903 44.0906 41.3695 44.299 39.5534H45.5397V40.8294H47.875ZM32.6954 45.933C31.3098 45.933 29.9553 45.484 28.8031 44.6428C27.651 43.8016 26.7531 42.606 26.2228 41.2072C25.6925 39.8083 25.5538 38.269 25.8241 36.784C26.0944 35.299 26.7617 33.9349 27.7415 32.8643C28.7213 31.7936 29.9696 31.0645 31.3287 30.7691C32.6877 30.4737 34.0963 30.6253 35.3765 31.2048C36.6567 31.7842 37.7508 32.7654 38.5207 34.0244C39.2905 35.2833 39.7014 36.7634 39.7014 38.2775C39.7861 39.934 39.3765 41.5758 38.5343 42.9563C37.6921 44.3368 36.4627 45.3813 35.0308 45.933H32.6954Z" fill="black" fill-opacity="0.2"/>
</svg>
