<svg width="246" height="77" viewBox="0 0 246 77" fill="none" xmlns="http://www.w3.org/2000/svg">
<path d="M69.9333 37.6743C63.0521 23.0932 49.6785 14.0351 35.031 14.0351C28.7309 14.0173 22.525 15.7056 16.968 18.9491L18.0627 21.203C23.2829 18.1561 29.1127 16.5702 35.031 16.5869C48.6034 16.5869 61.0188 24.8735 67.5758 38.2589C62.798 48.0027 54.6777 55.3032 45.2106 58.3386L45.8674 60.7873C56.1343 57.496 64.9056 49.4976 69.9333 38.8439C70.0186 38.663 70.0631 38.4626 70.0631 38.2591C70.0631 38.0557 70.0186 37.8552 69.9333 37.6743Z" fill="#FAF9F7"/>
<path d="M35.031 59.9313C21.4586 59.9313 9.04317 51.6447 2.48619 38.2592C5.60275 31.8717 10.1923 26.4846 15.8003 22.6316L14.5614 20.4684C8.42512 24.6848 3.44032 30.6279 0.129851 37.6743C0.0445194 37.8551 0 38.0556 0 38.2591C0 38.4625 0.0445194 38.663 0.129851 38.8439C7.011 53.425 20.3846 62.4831 35.031 62.4831C37.866 62.4838 40.6925 62.1433 43.4593 61.4679L42.9484 58.9778C40.3493 59.6123 37.6942 59.932 35.031 59.9313Z" fill="#FAF9F7"/>
<path d="M56.7265 7.6555H70.0607V5.10367H56.0488C55.843 5.10367 55.6408 5.16313 55.4627 5.27604C55.2847 5.38894 55.1371 5.55127 55.035 5.74657L50.3644 14.678L52.392 15.944L56.7265 7.6555Z" fill="#FAF9F7"/>
<path d="M70.0607 10.2073H61.8871V12.7592H70.0607V10.2073Z" fill="#FAF9F7"/>
<path d="M59.5517 10.2073H57.2164V12.7592H59.5517V10.2073Z" fill="#FAF9F7"/>
<path d="M70.0607 0H66.5578V2.55183H70.0607V0Z" fill="#FAF9F7"/>
<path d="M64.2224 0H56.0488V2.55183H64.2224V0Z" fill="#FAF9F7"/>
<path d="M13.3354 68.8995H0.0012207V71.4514H14.0131C14.219 71.4514 14.4212 71.3919 14.5992 71.279C14.7772 71.1661 14.9248 71.0038 15.0269 70.8085L19.6976 61.877L17.6699 60.611L13.3354 68.8995Z" fill="#FAF9F7"/>
<path d="M8.17482 63.7959H0.0012207V66.3477H8.17482V63.7959Z" fill="#FAF9F7"/>
<path d="M12.8454 63.7959H10.5101V66.3477H12.8454V63.7959Z" fill="#FAF9F7"/>
<path d="M3.50419 74.0032H0.0012207V76.555H3.50419V74.0032Z" fill="#FAF9F7"/>
<path d="M14.0132 74.0032H5.8396V76.555H14.0132V74.0032Z" fill="#FAF9F7"/>
<path d="M50.8598 30.0745C48.9254 25.623 45.4882 22.1633 41.2697 20.4213C37.0511 18.6793 32.3791 18.7904 28.2339 20.7314C24.0887 22.6724 20.7927 26.2924 19.0375 30.8317C17.2822 35.3709 17.2042 40.4767 18.8197 45.0775C20.4353 49.6782 23.6189 53.4164 27.7025 55.5076C31.786 57.5987 36.4521 57.8803 40.7215 56.2932C44.9909 54.7061 48.5318 51.3737 50.6012 46.9952C52.6706 42.6168 53.1075 37.5327 51.8203 32.8099L49.5821 33.5378C50.7046 37.6484 50.3262 42.0743 48.5264 45.8866C46.7265 49.6989 43.6451 52.6011 39.929 53.9841C36.2129 55.367 32.151 55.1232 28.5958 53.3038C25.0407 51.4843 22.2688 48.2307 20.8619 44.226C19.4551 40.2212 19.5227 35.7766 21.0505 31.8251C22.5783 27.8736 25.4476 24.7224 29.0561 23.033C32.6646 21.3436 36.7317 21.2474 40.4037 22.7645C44.0757 24.2816 47.0672 27.294 48.7501 31.1695L50.8598 30.0745Z" fill="#FAF9F7"/>
<path d="M35.031 31.8979H32.6957V34.4498H35.031V31.8979Z" fill="#FAF9F7"/>
<path d="M36.1986 37.0016H33.8633V39.5534H36.1986V37.0016Z" fill="#FAF9F7"/>
<path d="M32.6957 40.8293H30.3604V43.3812H32.6957V40.8293Z" fill="#FAF9F7"/>
<path d="M40.8693 38.2775H38.5339V40.8293H40.8693V38.2775Z" fill="#FAF9F7"/>
<path d="M47.8752 40.8294V35.7257H45.5399V37.0016H44.2993C44.0907 35.1856 43.4369 33.465 42.4071 32.0215L43.2874 31.0598L44.113 31.962L45.7643 30.1576L42.4617 26.5488L40.8109 28.3531L41.6366 29.2554L40.7565 30.2172C39.4354 29.092 37.8606 28.3777 36.1987 28.1499V26.7943H37.3663V24.2424H32.6957V26.7943H33.8633V28.1499C32.2014 28.3779 30.6268 29.0923 29.3058 30.2176L28.4257 29.2557L29.2514 28.3534L27.6 26.5491L24.2975 30.1579L25.9487 31.9617L26.7744 31.0595L27.6546 32.0212C26.6249 33.4648 25.9712 35.1855 25.7627 37.0016H24.5221V35.7257H22.1868V40.8294H24.5221V39.5534H25.7627C25.9713 41.3694 26.6251 43.0901 27.6549 44.5335L26.7746 45.4952L25.949 44.593L24.2977 46.3975L27.6003 50.0062L29.2511 48.2019L28.4254 47.2997L29.3055 46.3378C30.6266 47.463 32.2014 48.1773 33.8633 48.4051V49.7608H32.6957V52.3126H37.3663V49.7608H36.1987V48.4051C37.8606 48.1771 39.4352 47.4628 40.7562 46.3375L41.6363 47.2994L40.8106 48.2016L42.462 50.0059L45.7645 46.3971L44.1133 44.5933L43.2877 45.4955L42.4074 44.5338C43.4371 43.0903 44.0908 41.3695 44.2993 39.5534H45.5399V40.8294H47.8752ZM32.6957 45.933C31.31 45.933 29.9555 45.484 28.8034 44.6428C27.6513 43.8016 26.7533 42.606 26.223 41.2072C25.6928 39.8083 25.554 38.269 25.8244 36.784C26.0947 35.299 26.7619 33.9349 27.7417 32.8643C28.7215 31.7936 29.9699 31.0645 31.3289 30.7691C32.6879 30.4737 34.0966 30.6253 35.3767 31.2048C36.6569 31.7842 37.7511 32.7654 38.5209 34.0244C39.2907 35.2833 39.7016 36.7634 39.7016 38.2775C39.7863 39.934 39.3768 41.5758 38.5346 42.9563C37.6923 44.3368 36.4629 45.3813 35.031 45.933H32.6957Z" fill="#FAF9F7"/>
<path d="M83.8369 43H77.6494V25.5455H83.888C85.6437 25.5455 87.1551 25.8949 88.4221 26.5938C89.6891 27.2869 90.6636 28.2841 91.3454 29.5852C92.0329 30.8864 92.3766 32.4432 92.3766 34.2557C92.3766 36.0739 92.0329 37.6364 91.3454 38.9432C90.6636 40.25 89.6835 41.2528 88.4051 41.9517C87.1323 42.6506 85.6096 43 83.8369 43ZM81.3397 39.8381H83.6835C84.7744 39.8381 85.692 39.6449 86.4363 39.2585C87.1863 38.8665 87.7488 38.2614 88.1238 37.4432C88.5045 36.6193 88.6948 35.5568 88.6948 34.2557C88.6948 32.9659 88.5045 31.9119 88.1238 31.0938C87.7488 30.2756 87.1891 29.6733 86.4448 29.2869C85.7005 28.9006 84.7829 28.7074 83.692 28.7074H81.3397V39.8381ZM101.008 43.2557C99.6614 43.2557 98.5024 42.983 97.5308 42.4375C96.5649 41.8864 95.8205 41.108 95.2978 40.1023C94.7751 39.0909 94.5137 37.8949 94.5137 36.5142C94.5137 35.1676 94.7751 33.9858 95.2978 32.9688C95.8205 31.9517 96.5563 31.1591 97.5052 30.5909C98.4597 30.0227 99.5791 29.7386 100.863 29.7386C101.727 29.7386 102.531 29.8778 103.275 30.1562C104.025 30.429 104.678 30.8409 105.235 31.392C105.798 31.9432 106.235 32.6364 106.548 33.4716C106.86 34.3011 107.017 35.2727 107.017 36.3864V37.3835H95.9626V35.1335H103.599C103.599 34.6108 103.485 34.1477 103.258 33.7443C103.031 33.3409 102.715 33.0256 102.312 32.7983C101.914 32.5653 101.451 32.4489 100.923 32.4489C100.372 32.4489 99.883 32.5767 99.4569 32.8324C99.0364 33.0824 98.7069 33.4205 98.4683 33.8466C98.2296 34.267 98.1075 34.7358 98.1018 35.2528V37.392C98.1018 38.0398 98.2211 38.5994 98.4597 39.071C98.7041 39.5426 99.0478 39.9062 99.491 40.1619C99.9342 40.4176 100.46 40.5455 101.068 40.5455C101.471 40.5455 101.84 40.4886 102.176 40.375C102.511 40.2614 102.798 40.0909 103.036 39.8636C103.275 39.6364 103.457 39.358 103.582 39.0284L106.94 39.25C106.769 40.0568 106.42 40.7614 105.892 41.3636C105.369 41.9602 104.693 42.4261 103.863 42.7614C103.039 43.0909 102.088 43.2557 101.008 43.2557ZM115.352 43.2557C114.005 43.2557 112.846 42.983 111.875 42.4375C110.909 41.8864 110.164 41.108 109.642 40.1023C109.119 39.0909 108.857 37.8949 108.857 36.5142C108.857 35.1676 109.119 33.9858 109.642 32.9688C110.164 31.9517 110.9 31.1591 111.849 30.5909C112.803 30.0227 113.923 29.7386 115.207 29.7386C116.071 29.7386 116.875 29.8778 117.619 30.1562C118.369 30.429 119.022 30.8409 119.579 31.392C120.142 31.9432 120.579 32.6364 120.892 33.4716C121.204 34.3011 121.36 35.2727 121.36 36.3864V37.3835H110.306V35.1335H117.943C117.943 34.6108 117.829 34.1477 117.602 33.7443C117.375 33.3409 117.059 33.0256 116.656 32.7983C116.258 32.5653 115.795 32.4489 115.267 32.4489C114.715 32.4489 114.227 32.5767 113.801 32.8324C113.38 33.0824 113.051 33.4205 112.812 33.8466C112.573 34.267 112.451 34.7358 112.446 35.2528V37.392C112.446 38.0398 112.565 38.5994 112.803 39.071C113.048 39.5426 113.392 39.9062 113.835 40.1619C114.278 40.4176 114.803 40.5455 115.411 40.5455C115.815 40.5455 116.184 40.4886 116.519 40.375C116.855 40.2614 117.142 40.0909 117.38 39.8636C117.619 39.6364 117.801 39.358 117.926 39.0284L121.284 39.25C121.113 40.0568 120.764 40.7614 120.235 41.3636C119.713 41.9602 119.036 42.4261 118.207 42.7614C117.383 43.0909 116.431 43.2557 115.352 43.2557ZM123.73 47.9091V29.9091H127.309V32.108H127.471C127.63 31.7557 127.86 31.3977 128.161 31.0341C128.468 30.6648 128.866 30.358 129.355 30.1136C129.849 29.8636 130.463 29.7386 131.196 29.7386C132.15 29.7386 133.031 29.9886 133.838 30.4886C134.644 30.983 135.289 31.7301 135.772 32.7301C136.255 33.7244 136.497 34.9716 136.497 36.4716C136.497 37.9318 136.261 39.1648 135.789 40.1705C135.323 41.1705 134.687 41.929 133.88 42.446C133.079 42.9574 132.181 43.2131 131.187 43.2131C130.482 43.2131 129.883 43.0966 129.389 42.8636C128.9 42.6307 128.5 42.3381 128.187 41.9858C127.875 41.6278 127.636 41.267 127.471 40.9034H127.36V47.9091H123.73ZM127.284 36.4545C127.284 37.233 127.392 37.9119 127.607 38.4915C127.823 39.071 128.136 39.5227 128.545 39.8466C128.954 40.1648 129.451 40.3239 130.036 40.3239C130.627 40.3239 131.127 40.1619 131.536 39.8381C131.946 39.5085 132.255 39.054 132.465 38.4744C132.681 37.8892 132.789 37.2159 132.789 36.4545C132.789 35.6989 132.684 35.0341 132.474 34.4602C132.264 33.8864 131.954 33.4375 131.545 33.1136C131.136 32.7898 130.633 32.6278 130.036 32.6278C129.446 32.6278 128.946 32.7841 128.536 33.0966C128.133 33.4091 127.823 33.8523 127.607 34.4261C127.392 35 127.284 35.6761 127.284 36.4545ZM141.174 43H137.219L143.245 25.5455H148L154.017 43H150.063L145.691 29.5341H145.554L141.174 43ZM140.926 36.1392H150.267V39.0199H140.926V36.1392ZM160.264 43.2131C159.27 43.2131 158.37 42.9574 157.563 42.446C156.762 41.929 156.125 41.1705 155.654 40.1705C155.188 39.1648 154.955 37.9318 154.955 36.4716C154.955 34.9716 155.196 33.7244 155.679 32.7301C156.162 31.7301 156.804 30.983 157.605 30.4886C158.412 29.9886 159.296 29.7386 160.256 29.7386C160.989 29.7386 161.6 29.8636 162.088 30.1136C162.583 30.358 162.98 30.6648 163.281 31.0341C163.588 31.3977 163.821 31.7557 163.98 32.108H164.091V25.5455H167.713V43H164.134V40.9034H163.98C163.81 41.267 163.568 41.6278 163.256 41.9858C162.949 42.3381 162.549 42.6307 162.054 42.8636C161.566 43.0966 160.969 43.2131 160.264 43.2131ZM161.415 40.3239C162 40.3239 162.495 40.1648 162.898 39.8466C163.307 39.5227 163.62 39.071 163.835 38.4915C164.057 37.9119 164.168 37.233 164.168 36.4545C164.168 35.6761 164.06 35 163.844 34.4261C163.628 33.8523 163.316 33.4091 162.906 33.0966C162.497 32.7841 162 32.6278 161.415 32.6278C160.818 32.6278 160.316 32.7898 159.906 33.1136C159.497 33.4375 159.188 33.8864 158.977 34.4602C158.767 35.0341 158.662 35.6989 158.662 36.4545C158.662 37.2159 158.767 37.8892 158.977 38.4744C159.193 39.054 159.503 39.5085 159.906 39.8381C160.316 40.1619 160.818 40.3239 161.415 40.3239ZM182.903 29.9091L178.326 43H174.235L169.659 29.9091H173.494L176.213 39.2756H176.349L179.059 29.9091H182.903ZM184.761 43V29.9091H188.392V43H184.761ZM186.585 28.2216C186.045 28.2216 185.582 28.0426 185.196 27.6847C184.815 27.321 184.625 26.8864 184.625 26.3807C184.625 25.8807 184.815 25.4517 185.196 25.0938C185.582 24.7301 186.045 24.5483 186.585 24.5483C187.125 24.5483 187.585 24.7301 187.965 25.0938C188.352 25.4517 188.545 25.8807 188.545 26.3807C188.545 26.8864 188.352 27.321 187.965 27.6847C187.585 28.0426 187.125 28.2216 186.585 28.2216ZM202.192 33.642L198.868 33.8466C198.811 33.5625 198.689 33.3068 198.502 33.0795C198.314 32.8466 198.067 32.6619 197.76 32.5256C197.459 32.3835 197.098 32.3125 196.678 32.3125C196.115 32.3125 195.641 32.4318 195.254 32.6705C194.868 32.9034 194.675 33.2159 194.675 33.608C194.675 33.9205 194.8 34.1847 195.05 34.4006C195.3 34.6165 195.729 34.7898 196.337 34.9205L198.706 35.3977C199.979 35.6591 200.928 36.0795 201.553 36.6591C202.178 37.2386 202.49 38 202.49 38.9432C202.49 39.8011 202.237 40.554 201.732 41.2017C201.232 41.8494 200.544 42.3551 199.669 42.7188C198.8 43.0767 197.797 43.2557 196.661 43.2557C194.928 43.2557 193.547 42.8949 192.519 42.1733C191.496 41.446 190.897 40.4574 190.72 39.2074L194.291 39.0199C194.399 39.5483 194.661 39.9517 195.076 40.2301C195.49 40.5028 196.022 40.6392 196.669 40.6392C197.306 40.6392 197.817 40.517 198.203 40.2727C198.595 40.0227 198.794 39.7017 198.8 39.3097C198.794 38.9801 198.655 38.7102 198.382 38.5C198.11 38.2841 197.689 38.1193 197.121 38.0057L194.854 37.554C193.576 37.2983 192.624 36.8551 191.999 36.2244C191.379 35.5937 191.07 34.7898 191.07 33.8125C191.07 32.9716 191.297 32.2472 191.752 31.6392C192.212 31.0312 192.857 30.5625 193.686 30.233C194.522 29.9034 195.499 29.7386 196.618 29.7386C198.272 29.7386 199.573 30.0881 200.522 30.7869C201.476 31.4858 202.033 32.4375 202.192 33.642ZM210.691 43.2557C209.367 43.2557 208.223 42.9744 207.257 42.4119C206.296 41.8437 205.555 41.054 205.032 40.0426C204.509 39.0256 204.248 37.8466 204.248 36.5057C204.248 35.1534 204.509 33.9716 205.032 32.9602C205.555 31.9432 206.296 31.1534 207.257 30.5909C208.223 30.0227 209.367 29.7386 210.691 29.7386C212.015 29.7386 213.157 30.0227 214.117 30.5909C215.083 31.1534 215.828 31.9432 216.35 32.9602C216.873 33.9716 217.134 35.1534 217.134 36.5057C217.134 37.8466 216.873 39.0256 216.35 40.0426C215.828 41.054 215.083 41.8437 214.117 42.4119C213.157 42.9744 212.015 43.2557 210.691 43.2557ZM210.708 40.4432C211.311 40.4432 211.813 40.2727 212.217 39.9318C212.62 39.5852 212.924 39.1136 213.129 38.517C213.339 37.9205 213.444 37.2415 213.444 36.4801C213.444 35.7188 213.339 35.0398 213.129 34.4432C212.924 33.8466 212.62 33.375 212.217 33.0284C211.813 32.6818 211.311 32.5085 210.708 32.5085C210.1 32.5085 209.589 32.6818 209.174 33.0284C208.765 33.375 208.455 33.8466 208.245 34.4432C208.041 35.0398 207.938 35.7188 207.938 36.4801C207.938 37.2415 208.041 37.9205 208.245 38.517C208.455 39.1136 208.765 39.5852 209.174 39.9318C209.589 40.2727 210.1 40.4432 210.708 40.4432ZM219.495 43V29.9091H223.015V32.1932H223.152C223.39 31.3807 223.791 30.767 224.353 30.3523C224.916 29.9318 225.563 29.7216 226.296 29.7216C226.478 29.7216 226.674 29.733 226.884 29.7557C227.095 29.7784 227.279 29.8097 227.438 29.8494V33.071C227.268 33.0199 227.032 32.9744 226.731 32.9347C226.43 32.8949 226.154 32.875 225.904 32.875C225.37 32.875 224.893 32.9915 224.473 33.2244C224.058 33.4517 223.728 33.7699 223.484 34.179C223.245 34.5881 223.126 35.0597 223.126 35.5938V43H219.495ZM231.955 47.9091C231.495 47.9091 231.063 47.8722 230.66 47.7983C230.262 47.7301 229.933 47.642 229.671 47.5341L230.49 44.8239C230.916 44.9545 231.299 45.0256 231.64 45.0369C231.987 45.0483 232.285 44.9688 232.535 44.7983C232.791 44.6278 232.998 44.3381 233.157 43.929L233.37 43.375L228.674 29.9091H232.492L235.203 39.5227H235.339L238.075 29.9091H241.919L236.83 44.4148C236.586 45.1193 236.254 45.733 235.833 46.2557C235.419 46.7841 234.893 47.1903 234.257 47.4744C233.62 47.7642 232.853 47.9091 231.955 47.9091Z" fill="#FAF9F7"/>
</svg>
