<svg width="60" height="45" viewBox="0 0 60 45" fill="none" xmlns="http://www.w3.org/2000/svg">
<path d="M52.5 0H7.5C3.35742 0 0 3.35742 0 7.5V37.5C0 41.6426 3.35742 45 7.5 45H52.5C56.6426 45 60 41.6426 60 37.5V7.5C60 3.35742 56.6367 0 52.5 0ZM7.5 5.625H52.5C53.5338 5.625 54.375 6.46617 54.375 7.5V10.0969L34.8281 26.2805C32.1105 28.5398 27.8742 28.5387 25.1637 26.2823L5.625 10.1016V7.5C5.625 6.46875 6.46641 5.625 7.5 5.625ZM52.5 39.375H7.5C6.46617 39.375 5.625 38.5338 5.625 37.5V17.4258L21.5742 30.7148C23.9414 32.6719 26.9297 33.75 30 33.75C33.0703 33.75 36.0645 32.6733 38.434 30.7055L54.375 17.4258V37.5C54.375 38.5312 53.5312 39.375 52.5 39.375Z" fill="#FDEEDA"/>
<path d="M52.5 0H7.5C3.35742 0 0 3.35742 0 7.5V37.5C0 41.6426 3.35742 45 7.5 45H52.5C56.6426 45 60 41.6426 60 37.5V7.5C60 3.35742 56.6367 0 52.5 0ZM7.5 5.625H52.5C53.5338 5.625 54.375 6.46617 54.375 7.5V10.0969L34.8281 26.2805C32.1105 28.5398 27.8742 28.5387 25.1637 26.2823L5.625 10.1016V7.5C5.625 6.46875 6.46641 5.625 7.5 5.625ZM52.5 39.375H7.5C6.46617 39.375 5.625 38.5338 5.625 37.5V17.4258L21.5742 30.7148C23.9414 32.6719 26.9297 33.75 30 33.75C33.0703 33.75 36.0645 32.6733 38.434 30.7055L54.375 17.4258V37.5C54.375 38.5312 53.5312 39.375 52.5 39.375Z" fill="black" fill-opacity="0.2"/>
<path d="M52.5 0H7.5C3.35742 0 0 3.35742 0 7.5V37.5C0 41.6426 3.35742 45 7.5 45H52.5C56.6426 45 60 41.6426 60 37.5V7.5C60 3.35742 56.6367 0 52.5 0ZM7.5 5.625H52.5C53.5338 5.625 54.375 6.46617 54.375 7.5V10.0969L34.8281 26.2805C32.1105 28.5398 27.8742 28.5387 25.1637 26.2823L5.625 10.1016V7.5C5.625 6.46875 6.46641 5.625 7.5 5.625ZM52.5 39.375H7.5C6.46617 39.375 5.625 38.5338 5.625 37.5V17.4258L21.5742 30.7148C23.9414 32.6719 26.9297 33.75 30 33.75C33.0703 33.75 36.0645 32.6733 38.434 30.7055L54.375 17.4258V37.5C54.375 38.5312 53.5312 39.375 52.5 39.375Z" fill="black" fill-opacity="0.2"/>
</svg>
