<svg width="104" height="104" viewBox="0 0 104 104" fill="none" xmlns="http://www.w3.org/2000/svg">
<path d="M34.4548 54.0471C24.9124 54.0471 17.1492 61.6471 17.1492 70.9882C17.1492 80.3296 24.9124 87.9292 34.4548 87.9292C43.9969 87.9292 51.7604 80.3296 51.7604 70.9882C51.7604 67.5937 50.7378 64.3178 48.8039 61.515C48.3009 60.7866 47.2902 60.5948 46.5456 61.087C45.8014 61.5796 45.6055 62.5691 46.1084 63.2977C47.6781 65.5721 48.5077 68.2311 48.5077 70.9882C48.5077 78.5737 42.2036 84.745 34.455 84.745C26.7061 84.745 20.4024 78.5737 20.4024 70.9882C20.4024 63.4028 26.7061 57.2315 34.455 57.2315C35.3532 57.2315 36.0814 56.5187 36.0814 55.6396C36.0811 54.7599 35.3529 54.0471 34.4548 54.0471Z" fill="#FAF9F7"/>
<path d="M64.5205 86.0947L60.2673 81.9306C59.8851 81.5564 59.7809 80.9785 59.991 80.4837C59.9953 80.4746 60.0152 80.4287 60.0188 80.4196C60.2383 79.9011 60.7285 79.5659 61.268 79.5659H67.2832C68.1812 79.5659 68.9096 78.8531 68.9096 77.9738V62.1833C68.9096 61.3041 68.1812 60.5912 67.2832 60.5912H61.268C60.7285 60.5912 60.2383 60.2561 60.002 59.6986C59.7809 59.1785 59.8854 58.6005 60.2673 58.2259L64.5205 54.0623C65.1558 53.4406 65.1558 52.4325 64.5205 51.8106L53.1151 40.6454C52.4798 40.0237 51.4501 40.0237 50.8148 40.6454C50.1795 41.2673 50.1795 42.2753 50.8148 42.8972L61.0707 52.9367L57.9675 55.9742C56.6502 57.2636 56.2699 59.2055 57.0137 60.9558C57.738 62.6685 59.4078 63.7755 61.268 63.7755H65.6566V76.3815H61.268C59.4078 76.3815 57.738 77.4885 57.0254 79.1736C57.0218 79.1819 57.0021 79.2272 56.9988 79.2357C56.2694 80.9512 56.6497 82.8935 57.9675 84.1824L61.0707 87.2205L51.9651 96.1343L48.8619 93.0963C47.5443 91.8064 45.5605 91.4344 43.7735 92.1625C42.0237 92.8718 40.8929 94.507 40.8929 96.3275V100.624H28.016V96.3273C28.016 94.5065 26.8854 92.8716 25.1003 92.1482C23.3479 91.4346 21.3645 91.8067 20.0469 93.0961L16.9438 96.1341L7.83842 87.2202L10.9416 84.1822C12.2587 82.8923 12.639 80.9505 11.8954 79.2011C11.1706 77.4885 9.50055 76.3815 7.64107 76.3815H3.25272V63.7755H7.64131C9.50103 63.7755 11.1711 62.6685 11.9103 60.9212C12.639 59.2057 12.2589 57.2639 10.9418 55.974L7.83866 52.9364L16.944 44.0228L20.0472 47.0604C21.3643 48.3502 23.3477 48.7225 25.1356 47.9944C26.8854 47.2848 28.016 45.65 28.016 43.8296V39.5334H40.8929V43.8296C40.8929 45.6504 42.0237 47.2853 43.7735 47.9944C44.3598 48.2323 44.9461 48.4969 45.5153 48.7808C46.3148 49.1797 47.2946 48.8685 47.7028 48.0849C48.1104 47.3015 47.7923 46.3428 46.9919 45.9435C46.347 45.6217 45.6829 45.3221 45.0179 45.0523C44.488 44.8374 44.1456 44.3575 44.1456 43.8294V37.9409C44.1456 37.0614 43.4174 36.3488 42.5192 36.3488H26.3896C25.4914 36.3488 24.7632 37.0614 24.7632 37.9409V43.8294C24.7632 44.3575 24.4209 44.8374 23.8511 45.0685C23.3203 45.2852 22.7297 45.1832 22.3475 44.8088L18.0943 40.6452C17.459 40.0235 16.429 40.0235 15.794 40.6452L4.38834 51.8104C3.75307 52.4323 3.75307 53.4406 4.38834 54.0625L8.64152 58.2256C9.02398 58.6003 9.12794 59.1782 8.91234 59.6859C8.91018 59.6908 8.89265 59.7322 8.89025 59.7371C8.67081 60.2558 8.18055 60.591 7.64131 60.591H1.62636C0.728189 60.591 0 61.3039 0 62.1831V77.9736C0 78.8528 0.728189 79.5657 1.62636 79.5657H7.64155C8.18079 79.5657 8.67105 79.9008 8.9073 80.4583C9.12818 80.9785 9.02398 81.5564 8.64176 81.9306L4.38858 86.0942C3.75331 86.7161 3.75331 87.7244 4.38858 88.3463L15.7942 99.5115C16.4295 100.133 17.4593 100.133 18.0945 99.5115L22.3477 95.3477C22.7299 94.973 23.3203 94.8722 23.8389 95.0828C23.8439 95.0849 23.8862 95.1021 23.8912 95.1044C24.4211 95.3192 24.7635 95.7992 24.7635 96.3273V102.216C24.7635 103.095 25.4917 103.808 26.3898 103.808H42.5197C43.4179 103.808 44.1461 103.095 44.1461 102.216V96.3273C44.1461 95.7989 44.4885 95.319 45.0001 95.1112C45.0071 95.1084 45.0517 95.0906 45.0584 95.0877C45.5895 94.8713 46.1801 94.9737 46.5621 95.3474L50.8153 99.5111C51.1204 99.8098 51.5341 99.9774 51.9655 99.9774C52.3967 99.9774 52.8104 99.8098 53.1156 99.5113L64.521 88.3461C65.1558 87.7242 65.1558 86.7161 64.5205 86.0947Z" fill="#FAF9F7"/>
<path d="M81.2732 65.2808C81.2732 70.9334 85.9708 75.5323 91.7454 75.5323C97.52 75.5323 102.218 70.9334 102.218 65.2808C102.218 59.6281 97.52 55.0289 91.7454 55.0289C85.9708 55.0289 81.2732 59.6281 81.2732 65.2808ZM98.9646 65.2808C98.9646 69.1777 95.7261 72.348 91.7454 72.348C87.7647 72.348 84.5259 69.1777 84.5259 65.2808C84.5259 61.3835 87.7647 58.2134 91.7454 58.2134C95.7261 58.2134 98.9646 61.3835 98.9646 65.2808Z" fill="#FAF9F7"/>
<path d="M102.374 96.1358C103.271 96.1358 104 95.4231 104 94.5439V90.5561C104 83.9411 98.5026 78.5595 91.7451 78.5595C84.9875 78.5595 79.4902 83.9411 79.4902 90.5561V100.808H59.6896C58.7917 100.808 58.0632 101.521 58.0632 102.4C58.0632 103.28 58.7917 103.992 59.6896 103.992H81.0378C81.0645 103.994 81.0897 104 81.1166 104H102.373C103.271 104 104 103.287 104 102.408C104 101.529 103.271 100.816 102.373 100.816H82.7432V90.5561C82.7432 85.697 86.7815 81.7437 91.7451 81.7437C96.7087 81.7437 100.747 85.697 100.747 90.5561V94.5439C100.747 95.4231 101.475 96.1358 102.374 96.1358Z" fill="#FAF9F7"/>
<path d="M13.0114 35.3532C13.9095 35.3532 14.6377 34.6403 14.6377 33.7611V6.98891H25.4259C26.3241 6.98891 27.0522 6.27629 27.0522 5.3968C27.0522 4.51754 26.3241 3.80469 25.4259 3.80469H13.0114C12.1132 3.80469 11.385 4.51754 11.385 5.3968V33.7611C11.385 34.6405 12.1132 35.3532 13.0114 35.3532Z" fill="#FAF9F7"/>
<path d="M80.6769 6.98891H91.7049V45.5195C91.7049 46.399 92.4331 47.1116 93.3313 47.1116C94.2292 47.1116 94.9574 46.3988 94.9574 45.5195V5.3968C94.9574 4.51754 94.2292 3.80469 93.3313 3.80469H80.6769C79.779 3.80469 79.0508 4.51754 79.0508 5.3968C79.0508 6.27629 79.779 6.98891 80.6769 6.98891Z" fill="#FAF9F7"/>
<path d="M35.0446 13.846H71.2992C72.1971 13.846 72.9253 13.1332 72.9253 12.2539V1.59211C72.9253 0.712855 72.1971 0 71.2992 0H35.0446C34.1464 0 33.4182 0.712855 33.4182 1.59211V12.2539C33.4182 13.1332 34.1464 13.846 35.0446 13.846ZM36.6709 3.18423H69.6726V10.6616H36.6709V3.18423Z" fill="#FAF9F7"/>
<path d="M34.4547 60.6879C33.5563 60.6879 32.8284 61.4008 32.8284 62.28V70.9883C32.8284 71.8675 33.5563 72.5801 34.4547 72.5801H40.3883C41.2865 72.5801 42.0147 71.8675 42.0147 70.9883C42.0147 70.1088 41.2865 69.3959 40.3883 69.3959H36.0813V62.2803C36.0811 61.4008 35.3529 60.6879 34.4547 60.6879Z" fill="#FAF9F7"/>
<path d="M31.0287 26.3761H67.7479C68.6458 26.3761 69.374 25.6635 69.374 24.784C69.374 23.9048 68.6458 23.1919 67.7479 23.1919H31.0287C30.1303 23.1919 29.4023 23.9048 29.4023 24.784C29.4023 25.6633 30.1303 26.3761 31.0287 26.3761Z" fill="#FAF9F7"/>
<path d="M67.7481 36.0416H60.2899C59.392 36.0416 58.6636 36.7544 58.6636 37.6337C58.6636 38.5129 59.392 39.2258 60.2899 39.2258H67.7481C68.646 39.2258 69.3742 38.5129 69.3742 37.6337C69.3742 36.7544 68.646 36.0416 67.7481 36.0416Z" fill="#FAF9F7"/>
<path d="M77.5289 28.165C77.8465 28.4757 78.2629 28.631 78.6787 28.631C79.095 28.631 79.5116 28.4754 79.8287 28.1647L84.436 23.6542C85.0713 23.0325 85.0713 22.0245 84.436 21.4026C83.8007 20.7812 82.7705 20.7809 82.1362 21.4028L78.6787 24.7875L77.3087 23.4467C76.6735 22.825 75.6432 22.8248 75.0089 23.4469C74.3737 24.0686 74.3737 25.0769 75.0089 25.6985L77.5289 28.165Z" fill="#FAF9F7"/>
<path d="M77.5289 41.0149C77.8465 41.3256 78.2629 41.4812 78.6787 41.4812C79.095 41.4812 79.5116 41.3256 79.8287 41.0146L84.436 36.5041C85.0713 35.8825 85.0713 34.8744 84.436 34.2525C83.8007 33.6311 82.7705 33.6308 82.1362 34.2527L78.6787 37.6375L77.3087 36.2966C76.6735 35.6749 75.6432 35.6747 75.0089 36.2966C74.3737 36.9183 74.3737 37.9265 75.0089 38.5482L77.5289 41.0149Z" fill="#FAF9F7"/>
</svg>
