<svg width="30" height="30" viewBox="0 0 30 30" fill="none" xmlns="http://www.w3.org/2000/svg">
<path d="M28.8462 7.2115H1.15385C0.847827 7.2115 0.554342 7.08994 0.337954 6.87355C0.121566 6.65716 0 6.36367 0 6.05765C0 5.75164 0.121566 5.45815 0.337954 5.24176C0.554342 5.02537 0.847827 4.90381 1.15385 4.90381H28.8462C29.1522 4.90381 29.4457 5.02537 29.662 5.24176C29.8784 5.45815 30 5.75164 30 6.05765C30 6.36367 29.8784 6.65716 29.662 6.87355C29.4457 7.08994 29.1522 7.2115 28.8462 7.2115Z" fill="#FAF9F7"/>
<path d="M28.8462 16.1539H1.15385C0.847827 16.1539 0.554342 16.0323 0.337954 15.8159C0.121566 15.5995 0 15.3061 0 15C0 14.694 0.121566 14.4005 0.337954 14.1841C0.554342 13.9678 0.847827 13.8462 1.15385 13.8462H28.8462C29.1522 13.8462 29.4457 13.9678 29.662 14.1841C29.8784 14.4005 30 14.694 30 15C30 15.3061 29.8784 15.5995 29.662 15.8159C29.4457 16.0323 29.1522 16.1539 28.8462 16.1539Z" fill="#FAF9F7"/>
<path d="M28.8462 25.0961H1.15385C0.847827 25.0961 0.554342 24.9746 0.337954 24.7582C0.121566 24.5418 0 24.2483 0 23.9423C0 23.6363 0.121566 23.3428 0.337954 23.1264C0.554342 22.91 0.847827 22.7885 1.15385 22.7885H28.8462C29.1522 22.7885 29.4457 22.91 29.662 23.1264C29.8784 23.3428 30 23.6363 30 23.9423C30 24.2483 29.8784 24.5418 29.662 24.7582C29.4457 24.9746 29.1522 25.0961 28.8462 25.0961Z" fill="#FAF9F7"/>
</svg>
