<svg width="60" height="60" viewBox="0 0 60 60" fill="none" xmlns="http://www.w3.org/2000/svg">
<path d="M43.9714 60.0004C41.6368 59.983 39.3125 59.69 37.0467 59.1273C29.222 57.2394 21.1646 52.4503 14.3623 45.642C7.55991 38.8337 2.76484 30.7747 0.876957 22.9576C-1.11091 14.7345 0.306862 7.69931 4.86464 3.14153L6.16601 1.84016C7.34674 0.661797 8.94672 0 10.6148 0C12.283 0 13.883 0.661797 15.0637 1.84016L22.5421 9.31707C23.7212 10.4974 24.3835 12.0975 24.3835 13.7659C24.3835 15.4343 23.7212 17.0344 22.5421 18.2147L18.1246 22.6307C20.2423 26.3468 23.1226 30.0659 26.5268 33.47C29.9309 36.8742 33.653 39.756 37.3675 41.8737L41.7835 37.4562C42.3677 36.8718 43.0613 36.4083 43.8246 36.092C44.5879 35.7757 45.4061 35.613 46.2324 35.613C47.0586 35.613 47.8768 35.7757 48.6402 36.092C49.4035 36.4083 50.0971 36.8718 50.6812 37.4562L58.1581 44.9331C59.3375 46.113 60 47.713 60 49.3812C60 51.0494 59.3375 52.6494 58.1581 53.8293L56.8553 55.1307C53.6421 58.3498 49.1948 60.0004 43.9714 60.0004ZM10.6148 4.47424C10.3766 4.47306 10.1404 4.51944 9.92031 4.61067C9.70018 4.7019 9.50047 4.83614 9.33288 5.00553L8.03001 6.3069C4.6169 9.72001 3.61998 15.2613 5.22282 21.901C6.91967 28.9346 11.2879 36.2429 17.5217 42.4751C23.7554 48.7074 31.0622 53.0712 38.0973 54.774C44.7385 56.3768 50.2768 55.3799 53.6899 51.9668L54.9913 50.6654C55.3313 50.3251 55.5223 49.8638 55.5223 49.3827C55.5223 48.9016 55.3313 48.4403 54.9913 48.1L47.5158 40.6231C47.1756 40.2831 46.7142 40.0921 46.2331 40.0921C45.7521 40.0921 45.2907 40.2831 44.9504 40.6231L39.3524 46.2211C39.0165 46.5571 38.5824 46.7776 38.1129 46.8506C37.6434 46.9236 37.1628 46.8453 36.7407 46.627C32.1516 44.2541 27.5252 40.7992 23.3614 36.6354C19.1976 32.4716 15.7502 27.8482 13.3713 23.259C13.1528 22.8371 13.0743 22.3567 13.147 21.8871C13.2197 21.4176 13.4399 20.9834 13.7757 20.6473L19.3752 15.0494C19.7152 14.7091 19.9062 14.2477 19.9062 13.7666C19.9062 13.2856 19.7152 12.8242 19.3752 12.4839L11.8983 5.00553C11.7302 4.83643 11.5302 4.70239 11.3098 4.61119C11.0895 4.51999 10.8533 4.47344 10.6148 4.47424Z" fill="#FDEEDA"/>
<path d="M43.9714 60.0004C41.6368 59.983 39.3125 59.69 37.0467 59.1273C29.222 57.2394 21.1646 52.4503 14.3623 45.642C7.55991 38.8337 2.76484 30.7747 0.876957 22.9576C-1.11091 14.7345 0.306862 7.69931 4.86464 3.14153L6.16601 1.84016C7.34674 0.661797 8.94672 0 10.6148 0C12.283 0 13.883 0.661797 15.0637 1.84016L22.5421 9.31707C23.7212 10.4974 24.3835 12.0975 24.3835 13.7659C24.3835 15.4343 23.7212 17.0344 22.5421 18.2147L18.1246 22.6307C20.2423 26.3468 23.1226 30.0659 26.5268 33.47C29.9309 36.8742 33.653 39.756 37.3675 41.8737L41.7835 37.4562C42.3677 36.8718 43.0613 36.4083 43.8246 36.092C44.5879 35.7757 45.4061 35.613 46.2324 35.613C47.0586 35.613 47.8768 35.7757 48.6402 36.092C49.4035 36.4083 50.0971 36.8718 50.6812 37.4562L58.1581 44.9331C59.3375 46.113 60 47.713 60 49.3812C60 51.0494 59.3375 52.6494 58.1581 53.8293L56.8553 55.1307C53.6421 58.3498 49.1948 60.0004 43.9714 60.0004ZM10.6148 4.47424C10.3766 4.47306 10.1404 4.51944 9.92031 4.61067C9.70018 4.7019 9.50047 4.83614 9.33288 5.00553L8.03001 6.3069C4.6169 9.72001 3.61998 15.2613 5.22282 21.901C6.91967 28.9346 11.2879 36.2429 17.5217 42.4751C23.7554 48.7074 31.0622 53.0712 38.0973 54.774C44.7385 56.3768 50.2768 55.3799 53.6899 51.9668L54.9913 50.6654C55.3313 50.3251 55.5223 49.8638 55.5223 49.3827C55.5223 48.9016 55.3313 48.4403 54.9913 48.1L47.5158 40.6231C47.1756 40.2831 46.7142 40.0921 46.2331 40.0921C45.7521 40.0921 45.2907 40.2831 44.9504 40.6231L39.3524 46.2211C39.0165 46.5571 38.5824 46.7776 38.1129 46.8506C37.6434 46.9236 37.1628 46.8453 36.7407 46.627C32.1516 44.2541 27.5252 40.7992 23.3614 36.6354C19.1976 32.4716 15.7502 27.8482 13.3713 23.259C13.1528 22.8371 13.0743 22.3567 13.147 21.8871C13.2197 21.4176 13.4399 20.9834 13.7757 20.6473L19.3752 15.0494C19.7152 14.7091 19.9062 14.2477 19.9062 13.7666C19.9062 13.2856 19.7152 12.8242 19.3752 12.4839L11.8983 5.00553C11.7302 4.83643 11.5302 4.70239 11.3098 4.61119C11.0895 4.51999 10.8533 4.47344 10.6148 4.47424Z" fill="black" fill-opacity="0.2"/>
<path d="M43.9714 60.0004C41.6368 59.983 39.3125 59.69 37.0467 59.1273C29.222 57.2394 21.1646 52.4503 14.3623 45.642C7.55991 38.8337 2.76484 30.7747 0.876957 22.9576C-1.11091 14.7345 0.306862 7.69931 4.86464 3.14153L6.16601 1.84016C7.34674 0.661797 8.94672 0 10.6148 0C12.283 0 13.883 0.661797 15.0637 1.84016L22.5421 9.31707C23.7212 10.4974 24.3835 12.0975 24.3835 13.7659C24.3835 15.4343 23.7212 17.0344 22.5421 18.2147L18.1246 22.6307C20.2423 26.3468 23.1226 30.0659 26.5268 33.47C29.9309 36.8742 33.653 39.756 37.3675 41.8737L41.7835 37.4562C42.3677 36.8718 43.0613 36.4083 43.8246 36.092C44.5879 35.7757 45.4061 35.613 46.2324 35.613C47.0586 35.613 47.8768 35.7757 48.6402 36.092C49.4035 36.4083 50.0971 36.8718 50.6812 37.4562L58.1581 44.9331C59.3375 46.113 60 47.713 60 49.3812C60 51.0494 59.3375 52.6494 58.1581 53.8293L56.8553 55.1307C53.6421 58.3498 49.1948 60.0004 43.9714 60.0004ZM10.6148 4.47424C10.3766 4.47306 10.1404 4.51944 9.92031 4.61067C9.70018 4.7019 9.50047 4.83614 9.33288 5.00553L8.03001 6.3069C4.6169 9.72001 3.61998 15.2613 5.22282 21.901C6.91967 28.9346 11.2879 36.2429 17.5217 42.4751C23.7554 48.7074 31.0622 53.0712 38.0973 54.774C44.7385 56.3768 50.2768 55.3799 53.6899 51.9668L54.9913 50.6654C55.3313 50.3251 55.5223 49.8638 55.5223 49.3827C55.5223 48.9016 55.3313 48.4403 54.9913 48.1L47.5158 40.6231C47.1756 40.2831 46.7142 40.0921 46.2331 40.0921C45.7521 40.0921 45.2907 40.2831 44.9504 40.6231L39.3524 46.2211C39.0165 46.5571 38.5824 46.7776 38.1129 46.8506C37.6434 46.9236 37.1628 46.8453 36.7407 46.627C32.1516 44.2541 27.5252 40.7992 23.3614 36.6354C19.1976 32.4716 15.7502 27.8482 13.3713 23.259C13.1528 22.8371 13.0743 22.3567 13.147 21.8871C13.2197 21.4176 13.4399 20.9834 13.7757 20.6473L19.3752 15.0494C19.7152 14.7091 19.9062 14.2477 19.9062 13.7666C19.9062 13.2856 19.7152 12.8242 19.3752 12.4839L11.8983 5.00553C11.7302 4.83643 11.5302 4.70239 11.3098 4.61119C11.0895 4.51999 10.8533 4.47344 10.6148 4.47424Z" fill="black" fill-opacity="0.2"/>
<path d="M46.3625 33.088C45.7688 33.088 45.1994 32.8521 44.7795 32.4323C44.3597 32.0125 44.1239 31.4431 44.1239 30.8494C44.1195 26.9222 42.5576 23.157 39.7808 20.38C37.004 17.6029 33.239 16.0406 29.3118 16.0358C28.7181 16.0358 28.1487 15.8 27.7289 15.3802C27.3091 14.9604 27.0732 14.391 27.0732 13.7972C27.0732 13.2035 27.3091 12.6341 27.7289 12.2143C28.1487 11.7945 28.7181 11.5587 29.3118 11.5587C39.9481 11.5587 48.6011 20.2146 48.6011 30.8494C48.6011 31.4431 48.3652 32.0125 47.9454 32.4323C47.5256 32.8521 46.9562 33.088 46.3625 33.088Z" fill="#FDEEDA"/>
<path d="M46.3625 33.088C45.7688 33.088 45.1994 32.8521 44.7795 32.4323C44.3597 32.0125 44.1239 31.4431 44.1239 30.8494C44.1195 26.9222 42.5576 23.157 39.7808 20.38C37.004 17.6029 33.239 16.0406 29.3118 16.0358C28.7181 16.0358 28.1487 15.8 27.7289 15.3802C27.3091 14.9604 27.0732 14.391 27.0732 13.7972C27.0732 13.2035 27.3091 12.6341 27.7289 12.2143C28.1487 11.7945 28.7181 11.5587 29.3118 11.5587C39.9481 11.5587 48.6011 20.2146 48.6011 30.8494C48.6011 31.4431 48.3652 32.0125 47.9454 32.4323C47.5256 32.8521 46.9562 33.088 46.3625 33.088Z" fill="black" fill-opacity="0.2"/>
<path d="M46.3625 33.088C45.7688 33.088 45.1994 32.8521 44.7795 32.4323C44.3597 32.0125 44.1239 31.4431 44.1239 30.8494C44.1195 26.9222 42.5576 23.157 39.7808 20.38C37.004 17.6029 33.239 16.0406 29.3118 16.0358C28.7181 16.0358 28.1487 15.8 27.7289 15.3802C27.3091 14.9604 27.0732 14.391 27.0732 13.7972C27.0732 13.2035 27.3091 12.6341 27.7289 12.2143C28.1487 11.7945 28.7181 11.5587 29.3118 11.5587C39.9481 11.5587 48.6011 20.2146 48.6011 30.8494C48.6011 31.4431 48.3652 32.0125 47.9454 32.4323C47.5256 32.8521 46.9562 33.088 46.3625 33.088Z" fill="black" fill-opacity="0.2"/>
<path d="M55.8243 33.0879C55.2306 33.0879 54.6612 32.8521 54.2413 32.4323C53.8215 32.0125 53.5857 31.4431 53.5857 30.8493C53.5857 17.464 42.6912 6.57402 29.3118 6.57402C28.7181 6.57402 28.1487 6.33817 27.7289 5.91835C27.3091 5.49854 27.0732 4.92914 27.0732 4.33543C27.0732 3.74172 27.3091 3.17232 27.7289 2.7525C28.1487 2.33268 28.7181 2.09683 29.3118 2.09683C45.1656 2.09683 58.0629 14.9956 58.0629 30.8493C58.0629 31.4431 57.827 32.0125 57.4072 32.4323C56.9874 32.8521 56.418 33.0879 55.8243 33.0879Z" fill="#FDEEDA"/>
<path d="M55.8243 33.0879C55.2306 33.0879 54.6612 32.8521 54.2413 32.4323C53.8215 32.0125 53.5857 31.4431 53.5857 30.8493C53.5857 17.464 42.6912 6.57402 29.3118 6.57402C28.7181 6.57402 28.1487 6.33817 27.7289 5.91835C27.3091 5.49854 27.0732 4.92914 27.0732 4.33543C27.0732 3.74172 27.3091 3.17232 27.7289 2.7525C28.1487 2.33268 28.7181 2.09683 29.3118 2.09683C45.1656 2.09683 58.0629 14.9956 58.0629 30.8493C58.0629 31.4431 57.827 32.0125 57.4072 32.4323C56.9874 32.8521 56.418 33.0879 55.8243 33.0879Z" fill="black" fill-opacity="0.2"/>
<path d="M55.8243 33.0879C55.2306 33.0879 54.6612 32.8521 54.2413 32.4323C53.8215 32.0125 53.5857 31.4431 53.5857 30.8493C53.5857 17.464 42.6912 6.57402 29.3118 6.57402C28.7181 6.57402 28.1487 6.33817 27.7289 5.91835C27.3091 5.49854 27.0732 4.92914 27.0732 4.33543C27.0732 3.74172 27.3091 3.17232 27.7289 2.7525C28.1487 2.33268 28.7181 2.09683 29.3118 2.09683C45.1656 2.09683 58.0629 14.9956 58.0629 30.8493C58.0629 31.4431 57.827 32.0125 57.4072 32.4323C56.9874 32.8521 56.418 33.0879 55.8243 33.0879Z" fill="black" fill-opacity="0.2"/>
</svg>
