<svg width="30" height="28" viewBox="0 0 30 28" fill="none" xmlns="http://www.w3.org/2000/svg">
<path d="M15.4777 12.2145L3.93928 0.676078C3.03784 -0.225359 1.57751 -0.225359 0.676078 0.676078C-0.225359 1.57751 -0.225359 3.03784 0.676078 3.93928L10.5883 13.8443L0.679684 23.7529C-0.221753 24.6543 -0.221753 26.1146 0.679684 27.0161C1.12896 27.4668 1.71886 27.6903 2.30948 27.6903C2.9001 27.6903 3.49072 27.465 3.94072 27.0143L15.4791 15.4759C16.3791 14.5726 16.3791 13.1159 15.4777 12.2145ZM29.3237 12.2145L17.7854 0.676078C16.8839 -0.225359 15.4236 -0.225359 14.5221 0.676078C13.6207 1.57751 13.6207 3.03784 14.5221 3.93928L24.4343 13.8443L14.5258 23.7529C13.6243 24.6543 13.6243 26.1146 14.5258 27.0161C14.9729 27.4668 15.5642 27.6903 16.1556 27.6903C16.7469 27.6903 17.3368 27.465 17.7868 27.0143L29.3252 15.4759C30.2252 14.5726 30.2252 13.1159 29.3237 12.2145Z" fill="#FDEEDA"/>
<path d="M15.4777 12.2145L3.93928 0.676078C3.03784 -0.225359 1.57751 -0.225359 0.676078 0.676078C-0.225359 1.57751 -0.225359 3.03784 0.676078 3.93928L10.5883 13.8443L0.679684 23.7529C-0.221753 24.6543 -0.221753 26.1146 0.679684 27.0161C1.12896 27.4668 1.71886 27.6903 2.30948 27.6903C2.9001 27.6903 3.49072 27.465 3.94072 27.0143L15.4791 15.4759C16.3791 14.5726 16.3791 13.1159 15.4777 12.2145ZM29.3237 12.2145L17.7854 0.676078C16.8839 -0.225359 15.4236 -0.225359 14.5221 0.676078C13.6207 1.57751 13.6207 3.03784 14.5221 3.93928L24.4343 13.8443L14.5258 23.7529C13.6243 24.6543 13.6243 26.1146 14.5258 27.0161C14.9729 27.4668 15.5642 27.6903 16.1556 27.6903C16.7469 27.6903 17.3368 27.465 17.7868 27.0143L29.3252 15.4759C30.2252 14.5726 30.2252 13.1159 29.3237 12.2145Z" fill="black" fill-opacity="0.2"/>
<path d="M15.4777 12.2145L3.93928 0.676078C3.03784 -0.225359 1.57751 -0.225359 0.676078 0.676078C-0.225359 1.57751 -0.225359 3.03784 0.676078 3.93928L10.5883 13.8443L0.679684 23.7529C-0.221753 24.6543 -0.221753 26.1146 0.679684 27.0161C1.12896 27.4668 1.71886 27.6903 2.30948 27.6903C2.9001 27.6903 3.49072 27.465 3.94072 27.0143L15.4791 15.4759C16.3791 14.5726 16.3791 13.1159 15.4777 12.2145ZM29.3237 12.2145L17.7854 0.676078C16.8839 -0.225359 15.4236 -0.225359 14.5221 0.676078C13.6207 1.57751 13.6207 3.03784 14.5221 3.93928L24.4343 13.8443L14.5258 23.7529C13.6243 24.6543 13.6243 26.1146 14.5258 27.0161C14.9729 27.4668 15.5642 27.6903 16.1556 27.6903C16.7469 27.6903 17.3368 27.465 17.7868 27.0143L29.3252 15.4759C30.2252 14.5726 30.2252 13.1159 29.3237 12.2145Z" fill="black" fill-opacity="0.2"/>
</svg>
