<svg width="104" height="104" viewBox="0 0 104 104" fill="none" xmlns="http://www.w3.org/2000/svg">
<path d="M103.496 50.7772L83.9264 31.22C83.6898 30.9828 83.3881 30.8211 83.0596 30.7556C82.731 30.69 82.3904 30.7235 82.0808 30.8518C81.7713 30.9802 81.5069 31.1975 81.3211 31.4763C81.1352 31.7551 81.0364 32.0828 81.037 32.4178V42.9625H69.368C67.5015 39.3886 64.5852 36.4722 61.0113 34.6057V22.9342H71.556C71.8916 22.9357 72.2202 22.8374 72.4999 22.6518C72.7796 22.4662 72.9979 22.2017 73.127 21.8919C73.2562 21.582 73.2904 21.2408 73.2253 20.9115C73.1602 20.5822 72.9987 20.2797 72.7614 20.0423L53.1915 0.474908C52.8677 0.169877 52.4397 0 51.9949 0C51.5501 0 51.1221 0.169877 50.7984 0.474908L31.231 20.0423C30.9942 20.2792 30.8329 20.581 30.7675 20.9096C30.7022 21.2382 30.7357 21.5788 30.8639 21.8884C30.9921 22.1979 31.2092 22.4624 31.4878 22.6486C31.7663 22.8348 32.0938 22.9341 32.4288 22.9342H42.9735V34.6032C39.3991 36.4689 36.4825 39.3855 34.6168 42.9599H22.9528V32.4077C22.9508 32.0735 22.85 31.7474 22.663 31.4704C22.4761 31.1934 22.2114 30.9779 21.9023 30.8509C21.5932 30.724 21.2534 30.6913 20.9258 30.757C20.5981 30.8226 20.2972 30.9837 20.0609 31.22L0.496063 50.7772C0.178435 51.0949 0 51.5258 0 51.975C0 52.4243 0.178435 52.8551 0.496063 53.1728L20.0609 72.7503C20.2174 72.9095 20.4037 73.0362 20.6093 73.1231C20.8148 73.21 21.0355 73.2554 21.2587 73.2568C21.4813 73.2578 21.7018 73.2139 21.907 73.1277C22.2163 72.9999 22.4808 72.7832 22.667 72.5051C22.8531 72.227 22.9526 71.8999 22.9528 71.5652V60.9952H34.6244C36.4903 64.5695 39.4069 67.486 42.9811 69.3519V81.021H32.4288C32.0948 81.022 31.7686 81.1217 31.4911 81.3076C31.2137 81.4936 30.9974 81.7573 30.8694 82.0658C30.7414 82.3743 30.7074 82.7138 30.7718 83.0415C30.8361 83.3692 30.9959 83.6706 31.231 83.9078L50.7984 103.475C50.9555 103.632 51.142 103.757 51.3473 103.842C51.5526 103.927 51.7727 103.971 51.9949 103.971C52.2172 103.971 52.4372 103.927 52.6425 103.842C52.8478 103.757 53.0344 103.632 53.1915 103.475L72.7614 83.9078C72.9982 83.6709 73.1595 83.369 73.2249 83.0405C73.2902 82.7119 73.2567 82.3713 73.1285 82.0617C73.0003 81.7522 72.7832 81.4876 72.5046 81.3015C72.2261 81.1153 71.8986 81.0159 71.5636 81.0159H61.0189V69.3469C64.5931 67.4809 67.5097 64.5644 69.3756 60.9902H81.0446V71.5373C81.0448 71.872 81.1443 72.1991 81.3305 72.4773C81.5167 72.7554 81.7812 72.972 82.0905 73.0998C82.2956 73.1862 82.5162 73.2302 82.7388 73.229C82.9615 73.2274 83.1818 73.1818 83.3869 73.0949C83.592 73.008 83.778 72.8814 83.934 72.7225L103.504 53.1576C103.822 52.8399 104 52.4091 104 51.9599C104 51.5106 103.822 51.0798 103.504 50.7621L103.496 50.7772ZM44.6676 19.5459H36.5186L51.9962 4.06829L67.4764 19.5459H59.3248C58.8755 19.5459 58.4446 19.7244 58.1269 20.0421C57.8091 20.3598 57.6307 20.7908 57.6307 21.2401V33.2206C53.9567 32.108 50.0357 32.108 46.3618 33.2206V21.2426C46.3621 21.0199 46.3185 20.7993 46.2335 20.5935C46.1485 20.3877 46.0238 20.2006 45.8664 20.043C45.7091 19.8854 45.5222 19.7604 45.3165 19.6751C45.1108 19.5898 44.8903 19.5459 44.6676 19.5459ZM21.2587 57.6095C21.0361 57.6092 20.8157 57.6528 20.61 57.7378C20.4043 57.8228 20.2174 57.9476 20.06 58.105C19.9026 58.2623 19.7779 58.4492 19.6928 58.6549C19.6078 58.8606 19.5642 59.0811 19.5646 59.3036V67.4527L4.08945 51.9852L19.5646 36.505V44.6414C19.5642 44.864 19.6078 45.0844 19.6928 45.2901C19.7779 45.4958 19.9026 45.6827 20.06 45.8401C20.2174 45.9975 20.4043 46.1222 20.61 46.2073C20.8157 46.2923 21.0361 46.3359 21.2587 46.3355H33.2417C32.1275 50.0092 32.1275 53.9308 33.2417 57.6044L21.2587 57.6095ZM59.3248 84.3991H67.4738L51.9962 99.8818L36.5186 84.3991H44.6676C44.8902 84.3994 45.1106 84.3558 45.3163 84.2708C45.522 84.1858 45.7089 84.061 45.8663 83.9036C46.0237 83.7463 46.1485 83.5594 46.2335 83.3537C46.3185 83.148 46.3621 82.9275 46.3618 82.705V70.7245C50.0359 71.8354 53.9565 71.8354 57.6307 70.7245V82.7024C57.63 82.9252 57.6733 83.1459 57.7582 83.3519C57.8431 83.5579 57.9678 83.7451 58.1252 83.9027C58.2826 84.0604 58.4696 84.1854 58.6755 84.2706C58.8813 84.3558 59.102 84.3994 59.3248 84.3991ZM51.9962 68.1921C48.7908 68.1921 45.6573 67.2416 42.9921 65.4608C40.3269 63.6799 38.2496 61.1487 37.0229 58.1873C35.7963 55.2259 35.4753 51.9672 36.1007 48.8234C36.726 45.6795 38.2696 42.7917 40.5361 40.5251C42.8027 38.2585 45.6905 36.715 48.8344 36.0896C51.9782 35.4643 55.2369 35.7852 58.1983 37.0119C61.1598 38.2386 63.6909 40.3159 65.4718 42.9811C67.2526 45.6463 68.2032 48.7797 68.2032 51.9852C68.1998 56.2825 66.4912 60.4029 63.4525 63.4415C60.4139 66.4802 56.2935 68.1888 51.9962 68.1921ZM84.4253 67.4654V59.3036C84.4256 59.0813 84.3821 58.861 84.2973 58.6555C84.2124 58.45 84.0879 58.2632 83.9307 58.1059C83.7736 57.9485 83.587 57.8237 83.3816 57.7385C83.1762 57.6533 82.9561 57.6095 82.7337 57.6095H70.7507C71.8649 53.9358 71.8649 50.0143 70.7507 46.3406H82.7312C82.9535 46.3406 83.1737 46.2968 83.3791 46.2116C83.5845 46.1264 83.7711 46.0016 83.9282 45.8442C84.0853 45.6869 84.2099 45.5001 84.2947 45.2946C84.3796 45.0891 84.4231 44.8688 84.4228 44.6465V36.4949L99.903 51.9852L84.4253 67.4654Z" fill="#FAF9F7"/>
</svg>
