<svg width="738" height="738" viewBox="0 0 738 738" fill="none" xmlns="http://www.w3.org/2000/svg">
<path d="M367.955 318.37C367.957 318.37 367.959 318.372 367.958 318.374L315.569 445.08C310.26 457.92 318.536 472 332.43 472V472C363.83 472 389.68 467.7 409.9 459.11V459.11C418.048 455.58 420.858 445.919 417.456 437.716L367.952 318.374C367.951 318.372 367.953 318.37 367.955 318.37V318.37ZM367.955 318.37C367.957 318.37 367.959 318.372 367.958 318.374L315.569 445.08C310.26 457.92 318.536 472 332.43 472V472C363.83 472 389.68 467.7 409.9 459.11V459.11C418.048 455.58 420.858 445.919 417.456 437.716L367.952 318.374C367.951 318.372 367.953 318.37 367.955 318.37V318.37ZM469.17 229.665C469.164 229.662 469.159 229.656 469.156 229.649C461.247 205.704 449.908 186.218 435.18 171.21C420.45 156.25 404.12 146 386.19 140.61C368.25 135.22 345.27 132.47 317.2 132.47V132.47C294.158 132.47 276.23 151.746 276.23 174.788V375.1C276.23 410.74 276.92 433.78 278.24 444.04C279.56 454.35 283.57 461.57 290.22 465.76V465.76C291.417 466.558 292.955 465.898 293.511 464.571L380.874 256.115C382.089 253.216 384.925 251.33 388.069 251.33V251.33C391.208 251.33 394.042 253.212 395.259 256.106L459.221 408.189C459.482 408.809 460.339 408.881 460.64 408.28V408.28C474.22 382.95 480.98 350.69 480.98 311.44C480.98 280.904 477.081 253.688 469.183 229.68C469.181 229.674 469.176 229.668 469.17 229.665V229.665ZM469.17 229.665C469.164 229.662 469.159 229.656 469.156 229.649C461.247 205.704 449.908 186.218 435.18 171.21C420.45 156.25 404.12 146 386.19 140.61C368.25 135.22 345.27 132.47 317.2 132.47V132.47C294.158 132.47 276.23 151.746 276.23 174.788V375.1C276.23 410.74 276.92 433.78 278.24 444.04C279.56 454.35 283.57 461.57 290.22 465.76V465.76C291.417 466.558 292.955 465.898 293.511 464.571L380.874 256.115C382.089 253.216 384.925 251.33 388.069 251.33V251.33C391.208 251.33 394.042 253.212 395.259 256.106L459.221 408.189C459.482 408.809 460.339 408.881 460.64 408.28V408.28C474.22 382.95 480.98 350.69 480.98 311.44C480.98 280.904 477.081 253.688 469.183 229.68C469.181 229.674 469.176 229.668 469.17 229.665V229.665ZM305.1 470.39C305.1 470.39 305.1 470.39 305.1 470.39C312.26 471.42 321.32 471.99 332.43 471.99C363.83 471.99 389.68 467.69 409.9 459.1V459.1C418.048 455.57 420.858 445.909 417.456 437.706L406.874 412.197C392.512 377.573 343.456 377.601 329.133 412.242L305.094 470.381C305.092 470.385 305.095 470.39 305.1 470.39V470.39ZM369.68 13.5098C174.492 13.5098 16.23 171.741 16.23 366.93V366.93C16.23 562.118 174.492 720.35 369.68 720.35V720.35C564.868 720.35 723.13 562.118 723.13 366.93V366.93C723.13 171.741 564.868 13.5098 369.68 13.5098V13.5098ZM573.8 611.019C573.8 614.565 570.925 617.44 567.379 617.44H437.99C434.604 617.44 431.86 614.695 431.86 611.31V611.31C431.86 607.924 434.606 605.188 437.991 605.123C452.067 604.852 461.779 603.605 467.16 601.34C473.23 598.76 476.33 593.66 476.33 586.04C476.33 582.14 472.26 570.51 464.12 551.14L447.19 509.782C438.67 488.969 415.472 479.27 393.12 481.75V481.75C376.62 483.58 353.35 484.56 323.32 484.56V484.56C308.698 484.56 295.53 493.41 290.008 506.949L289.91 507.19C276.04 540.43 269.17 562.09 269.17 572.17C269.17 583 272.84 591.19 280.17 596.81C286.205 601.4 293.622 604.075 302.408 604.902C305.778 605.219 308.53 607.924 308.53 611.31V611.31C308.53 614.695 305.785 617.44 302.4 617.44H207.799C204.154 617.44 201.2 614.485 201.2 610.841V610.841C201.2 607.584 203.585 604.842 206.769 604.16C219.986 601.328 230.043 596.044 236.9 588.28C244.75 579.51 254.15 561 265.15 532.81C266.01 530.12 270.31 519.8 277.93 501.87V501.87C281.388 493.648 275.35 484.56 266.431 484.56H169.46C166.074 484.56 163.33 481.815 163.33 478.43V478.43C163.33 475.044 166.074 472.3 169.46 472.3H178.23C193.64 472.3 204.36 470.35 210.32 466.46C216.28 462.56 220.06 456.49 221.72 448.18C223.44 439.93 224.3 420.73 224.3 390.53V216.38C224.3 187.61 223.44 169.05 221.72 160.57C220.06 152.15 216.51 146.42 211.06 143.26C205.67 140.17 193.81 138.62 175.53 138.62H171.148C167.681 138.62 164.87 135.809 164.87 132.342V132.342C164.87 128.992 167.499 126.233 170.845 126.071L224.29 123.49C273.8 120.97 307.21 119.71 324.4 119.71C378.04 119.71 419.81 127.9 449.84 144.24C479.87 160.57 502.16 182.69 516.83 210.65C531.44 238.61 538.78 270.93 538.78 307.49C538.78 333.91 534.77 358.09 526.8 380.04C518.83 401.93 507.83 420.15 493.91 434.59V434.59C484.55 444.35 480.45 458.619 485.692 471.085L513.86 538.08L530.42 575.9C534.09 584.44 539.13 591.14 545.43 596.01C550.725 600.103 558.252 602.946 568.005 604.461C571.277 604.969 573.8 607.708 573.8 611.019V611.019ZM469.17 229.665C469.164 229.662 469.159 229.656 469.156 229.649C461.247 205.704 449.908 186.218 435.18 171.21C420.45 156.25 404.12 146 386.19 140.61C368.25 135.22 345.27 132.47 317.2 132.47V132.47C294.158 132.47 276.23 151.746 276.23 174.788V375.1C276.23 410.74 276.92 433.78 278.24 444.04C279.56 454.35 283.57 461.57 290.22 465.76V465.76C291.417 466.558 292.955 465.898 293.511 464.571L380.874 256.115C382.089 253.216 384.925 251.33 388.069 251.33V251.33C391.208 251.33 394.042 253.212 395.259 256.106L459.221 408.189C459.482 408.809 460.339 408.881 460.64 408.28V408.28C474.22 382.95 480.98 350.69 480.98 311.44C480.98 280.904 477.081 253.688 469.183 229.68C469.181 229.674 469.176 229.668 469.17 229.665V229.665ZM305.1 470.39C305.1 470.39 305.1 470.39 305.1 470.39C312.26 471.42 321.32 471.99 332.43 471.99C363.83 471.99 389.68 467.69 409.9 459.1V459.1C418.048 455.57 420.858 445.909 417.456 437.706L406.874 412.197C392.512 377.573 343.456 377.601 329.133 412.242L305.094 470.381C305.092 470.385 305.095 470.39 305.1 470.39V470.39ZM367.955 318.37C367.957 318.37 367.959 318.372 367.958 318.374L315.569 445.08C310.26 457.92 318.536 472 332.43 472V472C363.83 472 389.68 467.7 409.9 459.11V459.11C418.048 455.58 420.858 445.919 417.456 437.716L367.952 318.374C367.951 318.372 367.953 318.37 367.955 318.37V318.37ZM469.17 229.665C469.164 229.662 469.159 229.656 469.156 229.649C461.247 205.704 449.908 186.218 435.18 171.21C420.45 156.25 404.12 146 386.19 140.61C368.25 135.22 345.27 132.47 317.2 132.47V132.47C294.158 132.47 276.23 151.746 276.23 174.788V375.1C276.23 410.74 276.92 433.78 278.24 444.04C279.56 454.35 283.57 461.57 290.22 465.76V465.76C291.417 466.558 292.955 465.898 293.511 464.571L380.874 256.115C382.089 253.216 384.925 251.33 388.069 251.33V251.33C391.208 251.33 394.042 253.212 395.259 256.106L459.221 408.189C459.482 408.809 460.339 408.881 460.64 408.28V408.28C474.22 382.95 480.98 350.69 480.98 311.44C480.98 280.904 477.081 253.688 469.183 229.68C469.181 229.674 469.176 229.668 469.17 229.665V229.665ZM469.17 229.665C469.164 229.662 469.159 229.656 469.156 229.649C461.247 205.704 449.908 186.218 435.18 171.21C420.45 156.25 404.12 146 386.19 140.61C368.25 135.22 345.27 132.47 317.2 132.47V132.47C294.158 132.47 276.23 151.746 276.23 174.788V375.1C276.23 410.74 276.92 433.78 278.24 444.04C279.56 454.35 283.57 461.57 290.22 465.76V465.76C291.417 466.558 292.955 465.898 293.511 464.571L380.874 256.115C382.089 253.216 384.925 251.33 388.069 251.33V251.33C391.208 251.33 394.042 253.212 395.259 256.106L459.221 408.189C459.482 408.809 460.339 408.881 460.64 408.28V408.28C474.22 382.95 480.98 350.69 480.98 311.44C480.98 280.904 477.081 253.688 469.183 229.68C469.181 229.674 469.176 229.668 469.17 229.665V229.665ZM367.955 318.37C367.957 318.37 367.959 318.372 367.958 318.374L315.569 445.08C310.26 457.92 318.536 472 332.43 472V472C363.83 472 389.68 467.7 409.9 459.11V459.11C418.048 455.58 420.858 445.919 417.456 437.716L367.952 318.374C367.951 318.372 367.953 318.37 367.955 318.37V318.37Z" fill="#DEE8CA"/>
</svg>
