<svg width="707" height="707" viewBox="0 0 707 707" fill="none" xmlns="http://www.w3.org/2000/svg">
<path d="M351.725 304.86C351.727 304.86 351.729 304.862 351.728 304.865L299.339 431.57C294.03 444.41 302.306 458.49 316.2 458.49V458.49C347.6 458.49 373.45 454.19 393.67 445.6V445.6C401.818 442.07 404.628 432.409 401.226 424.207L351.722 304.865C351.721 304.862 351.723 304.86 351.725 304.86V304.86ZM351.725 304.86C351.727 304.86 351.729 304.862 351.728 304.865L299.339 431.57C294.03 444.41 302.306 458.49 316.2 458.49V458.49C347.6 458.49 373.45 454.19 393.67 445.6V445.6C401.818 442.07 404.628 432.409 401.226 424.207L351.722 304.865C351.721 304.862 351.723 304.86 351.725 304.86V304.86ZM452.94 216.155C452.934 216.152 452.929 216.146 452.926 216.139C445.017 192.194 433.678 172.708 418.95 157.7C404.22 142.74 387.89 132.49 369.96 127.1C352.02 121.71 329.04 118.96 300.97 118.96V118.96C277.928 118.96 260 138.236 260 161.278V361.59C260 397.23 260.69 420.27 262.01 430.53C263.33 440.84 267.34 448.06 273.99 452.25V452.25C275.187 453.048 276.725 452.388 277.281 451.061L364.644 242.605C365.859 239.706 368.695 237.82 371.839 237.82V237.82C374.978 237.82 377.812 239.702 379.029 242.596L442.991 394.679C443.252 395.299 444.109 395.371 444.41 394.77V394.77C457.99 369.44 464.75 337.18 464.75 297.93C464.75 267.394 460.851 240.178 452.953 216.171C452.951 216.164 452.946 216.158 452.94 216.155V216.155ZM452.94 216.155C452.934 216.152 452.929 216.146 452.926 216.139C445.017 192.194 433.678 172.708 418.95 157.7C404.22 142.74 387.89 132.49 369.96 127.1C352.02 121.71 329.04 118.96 300.97 118.96V118.96C277.928 118.96 260 138.236 260 161.278V361.59C260 397.23 260.69 420.27 262.01 430.53C263.33 440.84 267.34 448.06 273.99 452.25V452.25C275.187 453.048 276.725 452.388 277.281 451.061L364.644 242.605C365.859 239.706 368.695 237.82 371.839 237.82V237.82C374.978 237.82 377.812 239.702 379.029 242.596L442.991 394.679C443.252 395.299 444.109 395.371 444.41 394.77V394.77C457.99 369.44 464.75 337.18 464.75 297.93C464.75 267.394 460.851 240.178 452.953 216.171C452.951 216.164 452.946 216.158 452.94 216.155V216.155ZM288.87 456.88C288.87 456.88 288.87 456.88 288.87 456.88C296.03 457.91 305.09 458.48 316.2 458.48C347.6 458.48 373.45 454.18 393.67 445.59V445.59C401.818 442.06 404.628 432.399 401.226 424.197L390.644 398.688C376.282 364.063 327.226 364.091 312.903 398.732L288.864 456.871C288.862 456.875 288.865 456.88 288.87 456.88V456.88ZM353.45 0C158.262 0 0 158.232 0 353.42V353.42C0 548.608 158.262 706.84 353.45 706.84V706.84C548.638 706.84 706.9 548.608 706.9 353.42V353.42C706.9 158.232 548.638 0 353.45 0V0ZM557.57 597.509C557.57 601.055 554.695 603.93 551.149 603.93H421.76C418.374 603.93 415.63 601.185 415.63 597.8V597.8C415.63 594.414 418.376 591.679 421.761 591.613C435.837 591.342 445.549 590.095 450.93 587.83C457 585.25 460.1 580.15 460.1 572.53C460.1 568.63 456.03 557 447.89 537.63L430.96 496.272C422.44 475.459 399.242 465.76 376.89 468.24V468.24C360.39 470.07 337.12 471.05 307.09 471.05V471.05C292.468 471.05 279.3 479.9 273.778 493.439L273.68 493.68C259.81 526.92 252.94 548.58 252.94 558.66C252.94 569.49 256.61 577.68 263.94 583.3C269.976 587.89 277.392 590.565 286.178 591.392C289.548 591.709 292.3 594.414 292.3 597.8V597.8C292.3 601.185 289.555 603.93 286.17 603.93H191.569C187.924 603.93 184.97 600.976 184.97 597.331V597.331C184.97 594.074 187.355 591.333 190.539 590.65C203.756 587.818 213.813 582.534 220.67 574.77C228.52 566 237.92 547.49 248.92 519.3C249.78 516.61 254.08 506.29 261.7 488.36V488.36C265.158 480.138 259.12 471.05 250.201 471.05H153.23C149.845 471.05 147.1 468.305 147.1 464.92V464.92C147.1 461.534 149.845 458.79 153.23 458.79H162C177.41 458.79 188.13 456.84 194.09 452.95C200.05 449.05 203.83 442.98 205.49 434.67C207.21 426.42 208.07 407.22 208.07 377.02V202.87C208.07 174.1 207.21 155.54 205.49 147.06C203.83 138.64 200.28 132.91 194.83 129.75C189.44 126.66 177.58 125.11 159.3 125.11H154.918C151.451 125.11 148.64 122.299 148.64 118.832V118.832C148.64 115.483 151.27 112.723 154.615 112.561L208.06 109.98C257.57 107.46 290.98 106.2 308.17 106.2C361.81 106.2 403.58 114.39 433.61 130.73C463.64 147.06 485.93 169.18 500.6 197.14C515.21 225.1 522.55 257.42 522.55 293.98C522.55 320.4 518.54 344.58 510.57 366.53C502.6 388.42 491.6 406.64 477.68 421.08V421.08C468.32 430.84 464.22 445.109 469.462 457.575L497.63 524.57L514.19 562.39C517.86 570.93 522.9 577.63 529.2 582.5C534.495 586.593 542.022 589.436 551.775 590.951C555.047 591.459 557.57 594.198 557.57 597.509V597.509ZM452.94 216.155C452.934 216.152 452.929 216.146 452.926 216.139C445.017 192.194 433.678 172.708 418.95 157.7C404.22 142.74 387.89 132.49 369.96 127.1C352.02 121.71 329.04 118.96 300.97 118.96V118.96C277.928 118.96 260 138.236 260 161.278V361.59C260 397.23 260.69 420.27 262.01 430.53C263.33 440.84 267.34 448.06 273.99 452.25V452.25C275.187 453.048 276.725 452.388 277.281 451.061L364.644 242.605C365.859 239.706 368.695 237.82 371.839 237.82V237.82C374.978 237.82 377.812 239.702 379.029 242.596L442.991 394.679C443.252 395.299 444.109 395.371 444.41 394.77V394.77C457.99 369.44 464.75 337.18 464.75 297.93C464.75 267.394 460.851 240.178 452.953 216.171C452.951 216.164 452.946 216.158 452.94 216.155V216.155ZM288.87 456.88C288.87 456.88 288.87 456.88 288.87 456.88C296.03 457.91 305.09 458.48 316.2 458.48C347.6 458.48 373.45 454.18 393.67 445.59V445.59C401.818 442.06 404.628 432.399 401.226 424.197L390.644 398.688C376.282 364.063 327.226 364.091 312.903 398.732L288.864 456.871C288.862 456.875 288.865 456.88 288.87 456.88V456.88ZM351.725 304.86C351.727 304.86 351.729 304.862 351.728 304.865L299.339 431.57C294.03 444.41 302.306 458.49 316.2 458.49V458.49C347.6 458.49 373.45 454.19 393.67 445.6V445.6C401.818 442.07 404.628 432.409 401.226 424.207L351.722 304.865C351.721 304.862 351.723 304.86 351.725 304.86V304.86ZM452.94 216.155C452.934 216.152 452.929 216.146 452.926 216.139C445.017 192.194 433.678 172.708 418.95 157.7C404.22 142.74 387.89 132.49 369.96 127.1C352.02 121.71 329.04 118.96 300.97 118.96V118.96C277.928 118.96 260 138.236 260 161.278V361.59C260 397.23 260.69 420.27 262.01 430.53C263.33 440.84 267.34 448.06 273.99 452.25V452.25C275.187 453.048 276.725 452.388 277.281 451.061L364.644 242.605C365.859 239.706 368.695 237.82 371.839 237.82V237.82C374.978 237.82 377.812 239.702 379.029 242.596L442.991 394.679C443.252 395.299 444.109 395.371 444.41 394.77V394.77C457.99 369.44 464.75 337.18 464.75 297.93C464.75 267.394 460.851 240.178 452.953 216.171C452.951 216.164 452.946 216.158 452.94 216.155V216.155ZM452.94 216.155C452.934 216.152 452.929 216.146 452.926 216.139C445.017 192.194 433.678 172.708 418.95 157.7C404.22 142.74 387.89 132.49 369.96 127.1C352.02 121.71 329.04 118.96 300.97 118.96V118.96C277.928 118.96 260 138.236 260 161.278V361.59C260 397.23 260.69 420.27 262.01 430.53C263.33 440.84 267.34 448.06 273.99 452.25V452.25C275.187 453.048 276.725 452.388 277.281 451.061L364.644 242.605C365.859 239.706 368.695 237.82 371.839 237.82V237.82C374.978 237.82 377.812 239.702 379.029 242.596L442.991 394.679C443.252 395.299 444.109 395.371 444.41 394.77V394.77C457.99 369.44 464.75 337.18 464.75 297.93C464.75 267.394 460.851 240.178 452.953 216.171C452.951 216.164 452.946 216.158 452.94 216.155V216.155ZM351.725 304.86C351.727 304.86 351.729 304.862 351.728 304.865L299.339 431.57C294.03 444.41 302.306 458.49 316.2 458.49V458.49C347.6 458.49 373.45 454.19 393.67 445.6V445.6C401.818 442.07 404.628 432.409 401.226 424.207L351.722 304.865C351.721 304.862 351.723 304.86 351.725 304.86V304.86Z" fill="#6071A7"/>
</svg>
