<svg width="738" height="738" viewBox="0 0 738 738" fill="none" xmlns="http://www.w3.org/2000/svg">
<g clip-path="url(#clip0_1137_30)">
<path d="M737.13 737.13H0V0H737.13V737.13ZM28 709.13H709.13V28H28V709.13Z" fill="#25192D"/>
<path d="M546.01 596.73C539.68 591.83 534.65 585.12 530.93 576.56L514.36 538.64L477.14 450.11C483.22 445.53 488.94 440.41 494.35 434.81C508.32 420.3 519.32 402.04 527.34 380.03C535.36 358.05 539.36 333.78 539.36 307.25C539.36 270.57 532.01 238.19 517.31 210.13C502.61 182.07 480.22 159.87 450.13 143.49C420.01 127.11 378.08 118.9 324.29 118.9C307.02 118.9 273.52 120.14 223.83 122.65L164.25 125.58V137.86H174.94C193.29 137.86 205.19 139.42 210.6 142.54C216.04 145.66 219.6 151.45 221.29 159.91C223.01 168.37 223.83 187.04 223.83 215.9V390.61C223.83 420.89 223 440.17 221.29 448.44C219.6 456.74 215.79 462.85 209.81 466.76C203.86 470.67 193.11 472.61 177.62 472.61H162.67V484.92H284.95L277.67 502.29C270 520.29 265.74 530.63 264.85 533.31C253.81 561.62 244.36 580.2 236.54 589.01C228.68 597.82 216.75 603.48 200.72 605.97V618.25H308.4V605.97C296.82 605.97 287.34 603.17 279.93 597.57C272.55 591.94 268.86 583.7 268.86 572.85C268.86 562.7 275.79 540.98 289.7 507.64L298.96 484.93H323.23C353.32 484.93 376.67 483.98 393.25 482.13C405.72 480.73 418.73 477.71 432.25 473.06L464.44 551.73C472.62 571.17 476.72 582.81 476.72 586.72C476.72 594.39 473.63 599.51 467.49 602.08C461.35 604.69 449.55 605.96 432.08 605.96V618.24H574.5V605.96C561.84 604.72 552.36 601.63 546.03 596.73H546.01ZM410.05 459.4C389.75 468.02 363.83 472.35 332.3 472.35C321.2 472.35 312.07 471.78 304.91 470.7L367.96 318.23L423.53 452.09C419.2 454.98 414.72 457.4 410.04 459.41L410.05 459.4ZM460.94 408.38C460.69 408.86 460.43 409.3 460.14 409.78L393.34 250.92H382.91L292.28 467.3C291.42 466.92 290.66 466.54 289.96 466.09C283.28 461.89 279.27 454.64 277.94 444.3C276.6 433.99 275.94 410.9 275.94 375.11V133.06C289.84 132.17 303.55 131.72 317.07 131.72C345.22 131.72 368.29 134.46 386.26 139.86C404.27 145.3 420.65 155.54 435.44 170.59C450.2 185.64 461.56 205.2 469.51 229.22C477.43 253.27 481.38 280.63 481.38 311.26C481.38 350.61 474.57 382.99 460.96 408.38H460.94Z" fill="#25192D"/>
</g>
<defs>
<clipPath id="clip0_1137_30">
<rect width="737.13" height="737.13" fill="white"/>
</clipPath>
</defs>
</svg>
